# Created By Carrara 5.0

mtllib Sonic.Mtl

g stomach
# Number of vertices: 110
v 1.360451 5.350082 0.655453
v 1.666504 5.780921 0
v 2.901226 5.783548 1.180867
v 1.364391 5.784861 0.927355
v 2.901226 5.783548 1.180867
v 0.588092 7.074753 1.061336
v 0.577585 6.013416 1.501369
v 0.588092 7.074753 1.061336
v -0.398372 6.022611 1.501369
v -0.398372 6.022611 1.501369
v -0.387863 7.085261 1.061336
v -1.039377 6.797597 0.767104
v 1.376213 6.932891 0
v 2.901226 5.783548 1.180867
v 1.666504 5.780921 0
v 0.592033 7.514787 0
v 0.588092 7.074753 1.061336
v 0.592033 7.514787 0
v -0.382609 7.523981 0
v -0.387863 7.085261 1.061336
v -0.382609 7.523981 0
v -1.035435 7.115472 0
v 2.901226 5.783548 -1.180867
v 1.376213 6.932891 0
v 1.376213 6.932891 0
v 2.901226 5.783548 -1.180867
v 0.588092 7.074753 -1.061336
v 0.592033 7.514787 0
v 0.588092 7.074753 -1.061336
v -0.382609 7.523981 0
v -0.382609 7.523981 0
v -0.387863 7.085261 -1.061336
v -1.035435 7.115472 0
v 1.360451 5.350082 -0.655453
v 1.364391 5.784861 -0.927356
v 2.901226 5.783548 -1.180867
v 1.364391 5.784861 -0.927356
v 0.577585 6.013416 -1.501369
v 0.588092 7.074753 -1.061336
v 0.577585 6.013416 -1.501369
v -0.398372 6.022611 -1.501369
v -0.387863 7.085261 -1.061336
v -0.398372 6.022611 -1.501369
v -1.039377 6.797597 -0.767105
v 1.364391 5.784861 -0.927356
v 1.360451 5.350082 -0.655453
v 0.567076 4.952081 -1.061336
v 0.577585 6.013416 -1.501369
v 0.567076 4.952081 -1.061336
v -0.398372 6.022611 -1.501369
v -0.398372 6.022611 -1.501369
v -0.40888 4.961275 -1.061336
v -1.053825 5.262075 -0.767105
v 1.357824 5.078181 0
v 1.360451 5.350082 -0.655453
v 1.360451 5.350082 -0.655453
v 1.357824 5.078181 0
v 0.563136 4.512048 0
v 0.567076 4.952081 -1.061336
v 0.567076 4.952081 -1.061336
v 0.563136 4.512048 0
v -0.412821 4.522555 0
v -0.40888 4.961275 -1.061336
v -0.412821 4.522555 0
v -1.053825 5.262075 -0.767105
v 1.360451 5.350082 0.655453
v 1.357824 5.078181 0
v 1.357824 5.078181 0
v 1.360451 5.350082 0.655453
v 0.567076 4.952081 1.061336
v 0.563136 4.512048 0
v 0.563136 4.512048 0
v 0.567076 4.952081 1.061336
v -0.412821 4.522555 0
v -0.412821 4.522555 0
v -0.40888 4.961275 1.061336
v -1.053825 5.262075 0.767104
v 1.364391 5.784861 0.927355
v 0.577585 6.013416 1.501369
v 0.567076 4.952081 1.061336
v 0.567076 4.952081 1.061336
v 0.577585 6.013416 1.501369
v -0.398372 6.022611 1.501369
v -0.40888 4.961275 1.061336
v -0.398372 6.022611 1.501369
v -1.053825 5.262075 0.767104
v 1.364391 5.784861 0.927355
v 0.577585 6.013416 1.501369
v -0.387863 7.085261 1.061336
v -1.047258 6.029179 1.084979
v -0.387863 7.085261 1.061336
v -1.039377 6.797597 0.767104
v -0.387863 7.085261 -1.061336
v -1.039377 6.797597 -0.767105
v -0.387863 7.085261 -1.061336
v -1.047258 6.029179 -1.08498
v -0.40888 4.961275 -1.061336
v -1.047258 6.029179 -1.08498
v -0.40888 4.961275 -1.061336
v -1.057766 4.9442 0
v -0.40888 4.961275 1.061336
v -1.057766 4.9442 0
v -0.40888 4.961275 1.061336
v -1.047258 6.029179 1.084979
v -1.047258 6.029179 1.084979
v -1.039377 6.797597 0.767104
v -1.488606 6.034434 0
v -1.488606 6.034434 0
v -1.053825 5.262075 0.767104
v -1.047258 6.029179 1.084979

# Number of normals: 110
vn 0.535895 -0.7022 0.468757
vn 0.875745 -0.482774 0
vn 0.890636 -0.201474 0.407646
vn 0.180687 -0.288326 0.94033
vn 0.890636 -0.201474 0.407646
vn 0.243352 0.681971 0.689706
vn 0.323028 -0.02736 0.945994
vn 0.243352 0.681971 0.689706
vn -0.26853 0.002393 0.963268
vn -0.26853 0.002393 0.963268
vn -0.292736 0.694776 0.656956
vn -0.739167 0.448501 0.502473
vn 0.666234 0.745742 0
vn 0.890636 -0.201474 0.407646
vn 0.875745 -0.482774 0
vn 0.318278 0.947997 0
vn 0.243352 0.681971 0.689706
vn 0.318278 0.947997 0
vn -0.222942 0.974832 0
vn -0.292736 0.694776 0.656956
vn -0.222942 0.974832 0
vn -0.716677 0.697405 0
vn 0.890636 -0.201474 -0.407646
vn 0.666234 0.745742 0
vn 0.666234 0.745742 0
vn 0.890636 -0.201474 -0.407646
vn 0.243352 0.681971 -0.689706
vn 0.318278 0.947997 0
vn 0.243352 0.681971 -0.689706
vn -0.222942 0.974832 0
vn -0.222942 0.974832 0
vn -0.292736 0.694776 -0.656956
vn -0.716677 0.697405 0
vn 0.548115 -0.741095 -0.387747
vn 0.286352 -0.293605 -0.91203
vn 0.890636 -0.201474 -0.407646
vn 0.286352 -0.293605 -0.91203
vn 0.305435 -0.003024 -0.952208
vn 0.243352 0.681971 -0.689706
vn 0.305435 -0.003024 -0.952208
vn -0.268529 0.002393 -0.963269
vn -0.292736 0.694776 -0.656956
vn -0.268529 0.002393 -0.963269
vn -0.739167 0.448501 -0.502473
vn 0.286352 -0.293605 -0.91203
vn 0.548115 -0.741095 -0.387747
vn 0.256415 -0.679903 -0.687011
vn 0.305435 -0.003024 -0.952208
vn 0.256415 -0.679903 -0.687011
vn -0.268529 0.002393 -0.963269
vn -0.268529 0.002393 -0.963269
vn -0.288198 -0.67608 -0.678128
vn -0.72877 -0.48079 -0.487581
vn 0.751897 -0.657729 0.045217
vn 0.548115 -0.741095 -0.387747
vn 0.548115 -0.741095 -0.387747
vn 0.751897 -0.657729 0.045217
vn 0.318805 -0.947562 -0.022131
vn 0.256415 -0.679903 -0.687011
vn 0.256415 -0.679903 -0.687011
vn 0.318805 -0.947562 -0.022131
vn -0.277925 -0.960603 0
vn -0.288198 -0.67608 -0.678128
vn -0.277925 -0.960603 0
vn -0.72877 -0.48079 -0.487581
vn 0.535895 -0.7022 0.468757
vn 0.751897 -0.657729 0.045217
vn 0.751897 -0.657729 0.045217
vn 0.535895 -0.7022 0.468757
vn 0.268593 -0.695456 0.666482
vn 0.318805 -0.947562 -0.022131
vn 0.318805 -0.947562 -0.022131
vn 0.268593 -0.695456 0.666482
vn -0.277925 -0.960603 0
vn -0.277925 -0.960603 0
vn -0.288199 -0.676079 0.678128
vn -0.72877 -0.48079 0.487581
vn 0.180687 -0.288326 0.94033
vn 0.323028 -0.02736 0.945994
vn 0.268593 -0.695456 0.666482
vn 0.268593 -0.695456 0.666482
vn 0.323028 -0.02736 0.945994
vn -0.26853 0.002393 0.963268
vn -0.288199 -0.676079 0.678128
vn -0.26853 0.002393 0.963268
vn -0.72877 -0.48079 0.487581
vn 0.180687 -0.288326 0.94033
vn 0.323028 -0.02736 0.945994
vn -0.292736 0.694776 0.656956
vn -0.769089 0.007041 0.639102
vn -0.292736 0.694776 0.656956
vn -0.739167 0.448501 0.502473
vn -0.292736 0.694776 -0.656956
vn -0.739167 0.448501 -0.502473
vn -0.292736 0.694776 -0.656956
vn -0.769089 0.007041 -0.639103
vn -0.288198 -0.67608 -0.678128
vn -0.769089 0.007041 -0.639103
vn -0.288198 -0.67608 -0.678128
vn -0.775013 -0.631945 0
vn -0.288199 -0.676079 0.678128
vn -0.775013 -0.631945 0
vn -0.288199 -0.676079 0.678128
vn -0.769089 0.007041 0.639102
vn -0.769089 0.007041 0.639102
vn -0.739167 0.448501 0.502473
vn -0.999951 0.009926 0
vn -0.999951 0.009926 0
vn -0.72877 -0.48079 0.487581
vn -0.769089 0.007041 0.639102

# Number of texture vertices: 110
vt 0 0
vt 1 0
vt 1 1
vt 0 0
vt 1 0
vt 1 1
vt 0 0
vt 1 0
vt 0 1
vt 0 0
vt 1 0
vt 1 1
vt 1 1
vt 0 1
vt 0 0
vt 0 1
vt 0 0
vt 1 0
vt 1 1
vt 0 0
vt 1 0
vt 1 1
vt 1 1
vt 0 1
vt 0 0
vt 1 0
vt 1 1
vt 0 0
vt 1 0
vt 0 1
vt 0 0
vt 1 0
vt 0 1
vt 1 1
vt 0 1
vt 0 0
vt 1 1
vt 0 1
vt 0 0
vt 1 0
vt 1 1
vt 0 0
vt 1 0
vt 0 1
vt 0 0
vt 1 0
vt 1 1
vt 0 0
vt 1 0
vt 0 1
vt 0 0
vt 1 0
vt 1 1
vt 1 1
vt 0 1
vt 0 0
vt 1 0
vt 1 1
vt 0 1
vt 0 0
vt 1 0
vt 1 1
vt 0 0
vt 1 0
vt 0 1
vt 1 1
vt 0 1
vt 0 0
vt 1 0
vt 1 1
vt 0 1
vt 0 0
vt 1 0
vt 0 1
vt 0 0
vt 1 0
vt 1 1
vt 1 0
vt 1 1
vt 0 1
vt 0 0
vt 1 0
vt 1 1
vt 0 0
vt 1 0
vt 0 1
vt 1 1
vt 0 1
vt 1 1
vt 0 1
vt 0 1
vt 0 1
vt 1 1
vt 1 1
vt 0 1
vt 1 1
vt 1 1
vt 0 1
vt 0 1
vt 1 1
vt 1 1
vt 0 1
vt 0 1
vt 1 1
vt 0 0
vt 1 0
vt 1 1
vt 0 0
vt 0 0
vt 1 0

# Number of facets: 64
usemtl Sonic_11
f 1/1/1 2/2/2 3/3/3
f 4/4/4 5/5/5 6/6/6
f 7/7/7 8/8/8 9/9/9
f 10/10/10 11/11/11 12/12/12
f 13/13/13 14/14/14 15/15/15
f 13/13/13 16/16/16 17/17/17
f 17/17/17 18/18/18 19/19/19
f 20/20/20 21/21/21 22/22/22
f 23/23/23 24/24/24 15/15/15
f 25/25/25 26/26/26 27/27/27
f 28/28/28 29/29/29 30/30/30
f 31/31/31 32/32/32 33/33/33
f 34/34/34 35/35/35 36/36/36
f 37/37/37 38/38/38 39/39/39
f 39/39/39 40/40/40 41/41/41
f 42/42/42 43/43/43 44/44/44
f 45/45/45 46/46/46 47/47/47
f 47/47/47 38/38/38 45/45/45
f 48/48/48 49/49/49 50/50/50
f 51/51/51 52/52/52 53/53/53
f 54/54/54 55/55/55 15/15/15
f 56/56/56 57/57/57 58/58/58
f 58/58/58 59/59/59 56/56/56
f 60/60/60 61/61/61 62/62/62
f 63/63/63 64/64/64 65/65/65
f 66/66/66 67/67/67 15/15/15
f 68/68/68 69/69/69 70/70/70
f 70/70/70 71/71/71 68/68/68
f 72/72/72 73/73/73 74/74/74
f 75/75/75 76/76/76 77/77/77
f 1/1/1 78/78/78 79/79/79
f 79/79/79 80/80/80 1/1/1
f 81/81/81 82/82/82 83/83/83
f 84/84/84 85/85/85 86/86/86
f 1/1/1 5/5/5 87/87/87
f 36/36/36 2/2/2 34/34/34
f 17/17/17 5/5/5 13/13/13
f 27/27/27 16/16/16 25/25/25
f 6/6/6 88/88/88 4/4/4
f 39/39/39 26/26/26 37/37/37
f 8/8/8 89/89/89 9/9/9
f 10/10/10 12/12/12 90/90/90
f 17/17/17 19/19/19 91/91/91
f 20/20/20 22/22/22 92/92/92
f 29/29/29 93/93/93 30/30/30
f 32/32/32 94/94/94 33/33/33
f 39/39/39 41/41/41 95/95/95
f 43/43/43 96/96/96 44/44/44
f 49/49/49 97/97/97 50/50/50
f 51/51/51 53/53/53 98/98/98
f 60/60/60 62/62/62 99/99/99
f 64/64/64 100/100/100 65/65/65
f 73/73/73 101/101/101 74/74/74
f 75/75/75 77/77/77 102/102/102
f 81/81/81 83/83/83 103/103/103
f 85/85/85 104/104/104 86/86/86
usemtl Sonic_09
f 105/105/105 106/106/106 107/107/107
f 108/108/108 12/12/12 33/33/33
f 33/33/33 44/44/44 108/108/108
f 94/94/94 98/98/98 108/108/108
f 96/96/96 65/65/65 108/108/108
f 108/108/108 53/53/53 102/102/102
f 102/102/102 86/86/86 108/108/108
f 109/109/109 110/110/110 107/107/107


g tail
# Number of vertices: 8
v 0.826696 4.979632 -0.123471
v 0.676231 4.825456 0.249572
v 2.166977 3.371868 0.000001
v 0.676231 4.825456 0.249572
v 0.525765 4.671282 -0.123471
v 0.525765 4.671282 -0.123471
v 0.826696 4.979632 -0.123471
v 2.166977 3.371868 0.000001

# Number of normals: 8
vn 0.685138 0.533025 -0.496458
vn 0.085173 -0.083123 0.992893
vn 0.715969 -0.698132 -0.0004
vn 0.085173 -0.083123 0.992893
vn -0.515592 -0.698383 -0.496414
vn -0.515592 -0.698383 -0.496414
vn 0.685138 0.533025 -0.496458
vn 0.715969 -0.698132 -0.0004

# Number of texture vertices: 8
vt 1 1
vt 0 1
vt 0 0
vt 1 1
vt 0 1
vt 0 0
vt 1 0
vt 1 1

# Number of facets: 3
usemtl Texture_0_4
f 111/111/111 112/112/112 113/113/113
f 114/114/114 115/115/115 113/113/113
f 116/116/116 117/117/117 118/118/118
g arm
# Number of vertices: 20
v 0.008882 6.967059 -1.409016
v -0.182913 6.822908 -1.597778
v -0.183946 5.930892 -1.605847
v 0.006877 5.929418 -1.418396
v -0.182913 6.822908 -1.597778
v 0.004685 6.668036 -1.790009
v 0.003549 5.931241 -1.796671
v -0.183946 5.930892 -1.605847
v 0.004685 6.668036 -1.790009
v 0.19674 6.822723 -1.601119
v 0.195708 5.930707 -1.609189
v 0.003549 5.931241 -1.796671
v 0.19674 6.822723 -1.601119
v 0.008882 6.967059 -1.409016
v 0.006877 5.929418 -1.418396
v 0.195708 5.930707 -1.609189
v 0.006877 5.929418 -1.418396
v -0.183946 5.930892 -1.605847
v -0.182913 6.822908 -1.597778
v 0.008882 6.967059 -1.409016

# Number of normals: 20
vn -0.037215 0.86568 0.499213
vn -0.510423 0.673011 -0.535279
vn -0.744876 -0.664384 0.061262
vn 0.057862 -0.784272 0.617714
vn -0.510423 0.673011 -0.535279
vn 0.113673 0.379579 -0.918149
vn -0.060985 -0.776139 -0.627606
vn -0.744876 -0.664384 0.061262
vn 0.113673 0.379579 -0.918149
vn 0.591221 0.68042 -0.432997
vn 0.749972 -0.655901 -0.085648
vn -0.060985 -0.776139 -0.627606
vn 0.591221 0.68042 -0.432997
vn -0.037215 0.86568 0.499213
vn 0.057862 -0.784272 0.617714
vn 0.749972 -0.655901 -0.085648
vn 0.057862 -0.784272 0.617714
vn -0.744876 -0.664384 0.061262
vn -0.510423 0.673011 -0.535279
vn -0.037215 0.86568 0.499213

# Number of texture vertices: 20
vt 0 0
vt 1 0
vt 1 1
vt 0 1
vt 0 0
vt 1 0
vt 1 1
vt 0 1
vt 0 0
vt 1 0
vt 1 1
vt 0 1
vt 0 0
vt 1 0
vt 1 1
vt 0 1
vt 0 0
vt 1 0
vt 1 1
vt 0 1

# Number of facets: 12
usemtl Texture_0_1
f 119/119/119 120/120/120 121/121/121
f 121/121/121 122/122/122 119/119/119
f 123/123/123 124/124/124 125/125/125
f 125/125/125 126/126/126 123/123/123
f 127/127/127 128/128/128 129/129/129
f 129/129/129 130/130/130 127/127/127
f 131/131/131 132/132/132 133/133/133
f 133/133/133 134/134/134 131/131/131
f 135/135/135 136/136/136 125/125/125
f 125/125/125 134/134/134 135/135/135
f 131/131/131 124/124/124 137/137/137
f 137/137/137 138/138/138 131/131/131
# Number of vertices: 8
v 0.008882 5.920466 -1.409016
v -0.182913 5.920466 -1.597778
v -0.183946 5.031177 -1.605847
v 0.006877 5.029702 -1.418396
v 0.004685 5.920466 -1.790009
v 0.003549 5.031525 -1.796671
v 0.19674 5.920466 -1.601119
v 0.195708 5.030991 -1.609189

# Number of normals: 8
vn -0.057867 0.65788 0.750896
vn -0.623154 0.780639 -0.047761
vn -0.747944 -0.66018 0.068863
vn 0.058386 -0.784405 0.617495
vn 0.057696 0.665006 -0.744606
vn -0.061548 -0.776268 -0.627391
vn 0.624697 0.779333 0.04893
vn 0.745883 -0.661795 -0.075411

# Number of texture vertices: 20
vt 0 0
vt 1 0
vt 0 1
vt 1 0
vt 0 0
vt 1 1
vt 1 1
vt 0 1
vt 1 0
vt 0 1
vt 1 1
vt 0 0
vt 1 0
vt 0 0
vt 1 1
vt 0 1
vt 1 0
vt 0 0
vt 1 1
vt 0 1

g arm_1 
usemtl Texture_0
# Number of Polygons: 12
f 139/139/139 140/142/140 141/145/141 
f 141/145/141 142/148/142 139/139/139 
f 140/143/140 143/151/143 144/153/144 
f 144/153/144 141/146/141 140/143/140 
f 143/152/143 145/155/145 146/157/146 
f 146/157/146 144/154/144 143/152/143 
f 145/156/145 139/140/139 142/149/142 
f 142/149/142 146/158/146 145/156/145 
f 142/150/142 141/147/141 144/153/144 
f 144/153/144 146/158/146 142/150/142 
f 145/156/145 143/151/143 140/144/140 
f 140/144/140 139/141/139 145/156/145 
# Number of vertices: 16
v 0.025984 5.02783 -1.424043
v -0.181722 5.028405 -1.592589
v -0.184489 4.377836 -1.59381
v 0.023216 4.377261 -1.425264
v -0.013157 5.028422 -1.800309
v -0.015924 4.377852 -1.801531
v 0.194554 5.027847 -1.631731
v 0.191785 4.377277 -1.632953
v 0.056672 4.378123 -1.12896
v -0.48135 4.380147 -1.565568
v -0.483558 3.808742 -1.566235
v 0.055771 3.806723 -1.129766
v -0.0507 4.37961 -2.097676
v -0.051599 3.80821 -2.09848
v 0.488631 4.377592 -1.661206
v 0.486424 3.806185 -1.661874

# Number of normals: 16
vn -0.022691 0.518402 0.854836
vn -0.755881 0.654392 -0.02039
vn -0.972527 0.0037 0.232761
vn 0.232868 -0.002817 0.972504
vn 0.02508 0.520856 -0.853276
vn -0.233321 0.002818 -0.972396
vn 0.759803 0.649781 0.022001
vn 0.97236 -0.003699 -0.233456
vn -0.053751 0.500235 0.86422
vn -0.770184 0.635955 -0.048763
vn -0.835065 -0.499038 0.231577
vn 0.206656 -0.634944 0.744405
vn 0.055897 0.502052 -0.863029
vn -0.209583 -0.632006 -0.746086
vn 0.774195 0.630993 0.049696
vn 0.831969 -0.503286 -0.233519

# Number of texture vertices: 38
vt 0 0
vt 1 0
vt 0 1
vt 1 0
vt 0 0
vt 1 1
vt 1 1
vt 0 1
vt 0 1
vt 1 1
vt 1 0
vt 0 0
vt 1 1
vt 0 1
vt 1 0
vt 0 0
vt 1 1
vt 0 1
vt 0 0
vt 1 0
vt 0 1
vt 1 0
vt 0 0
vt 1 1
vt 1 1
vt 0 1
vt 1 0
vt 0 1
vt 1 1
vt 0 0
vt 1 0
vt 0 0
vt 1 1
vt 0 1
vt 1 0
vt 0 0
vt 1 1
vt 0 1

g cuff 
usemtl Sonic_09
# Number of Polygons: 10
f 147/159/147 148/162/148 149/165/149 
f 149/165/149 150/167/150 147/159/147 
f 148/163/148 151/169/151 152/171/152 
f 152/171/152 149/166/149 148/163/148 
f 151/170/151 153/173/153 154/175/154 
f 154/175/154 152/172/152 151/170/151 
f 153/174/153 147/160/147 150/168/150 
f 150/168/150 154/176/154 153/174/153 
f 153/174/153 151/169/151 148/164/148 
f 148/164/148 147/161/147 153/174/153 
usemtl Sonic_14
# Number of Polygons: 12
f 155/177/155 156/180/156 157/183/157 
f 157/183/157 158/186/158 155/177/155 
f 156/181/156 159/189/159 160/191/160 
f 160/191/160 157/184/157 156/181/156 
f 159/190/159 161/193/161 162/195/162 
f 162/195/162 160/192/160 159/190/159 
f 161/194/161 155/178/155 158/187/158 
f 158/187/158 162/196/162 161/194/161 
f 158/188/158 157/185/157 160/191/160 
f 160/191/160 162/196/162 158/188/158 
f 161/194/161 159/189/159 156/182/156 
f 156/182/156 155/179/155 161/194/161 
# Number of vertices: 8
v 0.572287 3.793501 -1.278724
v -0.541484 3.808484 -1.281906
v -0.750171 2.844475 -1.287978
v 0.754997 2.824227 -1.283679
v -0.539408 3.812494 -1.989869
v -0.748096 2.848486 -1.995942
v 0.574364 3.79751 -1.986689
v 0.757073 2.828236 -1.991642

# Number of normals: 8
vn 0.460014 0.545776 0.700368
vn -0.570859 0.707074 0.417332
vn -0.555738 -0.444517 0.702538
vn 0.680294 -0.542708 0.492614
vn -0.445077 0.565891 -0.694027
vn -0.694554 -0.51858 -0.498667
vn 0.589715 0.696194 -0.40933
vn 0.543702 -0.451248 -0.707647

# Number of texture vertices: 18
vt 0 0
vt 1 0
vt 0 1
vt 1 0
vt 0 0
vt 1 1
vt 1 1
vt 0 1
vt 0 1
vt 1 1
vt 1 0
vt 0 0
vt 1 1
vt 0 1
vt 1 0
vt 0 0
vt 1 1
vt 0 1

g hand 
usemtl Texture_0_2
# Number of Polygons: 11
f 163/197/163 164/200/164 165/203/165 
f 165/203/165 166/205/166 163/197/163 
f 164/201/164 167/207/167 168/209/168 
f 168/209/168 165/204/165 164/201/164 
f 167/208/167 169/211/169 170/213/170 
f 170/213/170 168/210/168 167/208/167 
f 169/212/169 163/198/163 166/206/166 
f 166/206/166 170/214/170 169/212/169 
f 169/212/169 167/207/167 164/202/164 
f 164/202/164 163/199/163 169/212/169 
f 168/209/168 170/213/170 166/205/166 165/203/165 
g thumb
# Number of vertices: 17
v -0.900947 2.610961 -1.275263
v -1.023148 2.652026 -1.164276
v -0.824283 2.949692 -1.401026
v -0.901691 2.657552 -1.000828
v -0.829555 3.205265 -1.016158
v -0.638109 2.960348 -1.14536
v -0.75639 2.617809 -1.080092
v -0.900947 2.610961 -1.275263
v -0.900947 2.610961 -1.275263
v -0.75639 2.617809 -1.080092
v -0.597058 3.564482 -1.11277
v -0.866567 3.549057 -1.482878
v -1.015729 3.194609 -1.271825
v -0.297871 3.532663 -1.329309
v -0.824283 2.949692 -1.401026
v -0.56738 3.517238 -1.699417
v -0.56738 3.517238 -1.699417

# Number of normals: 17
vn 0.090577 -0.829308 -0.551402
vn -0.922645 -0.385068 -0.021168
vn 0.052422 -0.440202 -0.896367
vn -0.131576 -0.531871 0.836541
vn -0.158742 0.182308 0.970343
vn 0.900502 -0.349157 0.259203
vn 0.59776 -0.752306 0.276981
vn 0.090577 -0.829308 -0.551402
vn 0.090577 -0.829308 -0.551402
vn 0.59776 -0.752306 0.276981
vn -0.128947 0.849569 0.511473
vn -0.630216 0.75886 -0.164192
vn -0.972919 0.203446 -0.109716
vn 0.986078 0.124749 0.109946
vn 0.052422 -0.440202 -0.896367
vn 0.080179 0.44331 -0.892775
vn 0.080179 0.44331 -0.892775

# Number of texture vertices: 17
vt 0.666667 0
vt 0.666667 0.25
vt 0.5 0
vt 0.666667 0.5
vt 0.5 0.5
vt 0.5 0.75
vt 0.666667 0.75
vt 0.666667 1
vt 1 0.25
vt 1 0.5
vt 0.333333 0.5
vt 0.333333 0.25
vt 0.5 0.25
vt 0.333333 0.75
vt 0.5 1
vt 0.333333 1
vt 0.333333 0

# Number of facets: 20
usemtl Texture_0_2
f 171/215/171 172/216/172 173/217/173
f 172/216/172 174/218/174 175/219/175
f 175/219/175 174/218/174 176/220/176
f 176/220/176 177/221/177 178/222/178
f 179/223/179 180/224/180 174/218/174
f 181/225/181 182/226/182 183/227/183
f 176/220/176 184/228/184 175/219/175
f 185/229/185 186/230/186 184/228/184
f 182/226/182 187/231/187 183/227/183
f 181/225/181 184/228/184 187/231/187
f 172/216/172 183/227/183 173/217/173
f 174/218/174 177/221/177 176/220/176
f 184/228/184 181/225/181 175/219/175
f 187/231/187 173/217/173 183/227/183
f 172/216/172 175/219/175 183/227/183
f 176/220/176 178/222/178 185/229/185
f 179/223/179 174/218/174 172/216/172
f 181/225/181 183/227/183 175/219/175
f 185/229/185 184/228/184 176/220/176
f 181/225/181 187/231/187 182/226/182
# Number of vertices: 8
v -0.750171 2.825261 -1.27608
v 0.754997 2.805013 -1.271781
v -0.748096 2.829272 -1.984044
v 0.757073 2.809022 -1.979744
v 0.42832 1.873095 -1.215345
v -0.445097 1.884845 -1.21784
v -0.444008 1.886952 -1.589564
v 0.429409 1.8752 -1.587067

# Number of normals: 8
vn -0.670215 0.534475 0.514925
vn 0.566419 0.440578 0.696463
vn -0.614871 0.180888 -0.767602
vn 0.691646 0.413331 -0.592269
vn 0.543009 -0.734917 0.40625
vn -0.440735 -0.553345 0.706797
vn -0.546056 -0.774551 -0.319208
vn 0.336386 -0.75043 -0.568946

# Number of texture vertices: 18
vt 1 1
vt 0 1
vt 0 1
vt 1 1
vt 1 1
vt 0 1
vt 1 1
vt 0 1
vt 0 0
vt 1 0
vt 1 0
vt 0 0
vt 1 1
vt 0 0
vt 1 0
vt 0 1
vt 0 0
vt 1 0

g hand_1 
usemtl Texture_0_3
# Number of Polygons: 11
f 192/240/192 193/242/193 194/244/194 
f 194/244/194 195/247/195 192/240/192 
f 193/243/193 192/241/192 189/235/189 
f 189/235/189 188/233/188 193/243/193 
f 194/245/194 193/242/193 188/232/188 
f 188/232/188 190/237/190 194/245/194 
f 195/248/195 194/246/194 190/236/190 
f 190/236/190 191/239/191 195/248/195 
f 192/240/192 195/249/195 191/238/191 
f 191/238/191 189/234/189 192/240/192 
f 188/232/188 189/234/189 191/238/191 190/236/190 
g arm_2
# Number of vertices: 20
v 0.008882 6.967059 1.409016
v -0.182913 6.822908 1.597778
v -0.183946 5.930892 1.605847
v 0.006877 5.929418 1.418396
v -0.182913 6.822908 1.597778
v 0.004685 6.668036 1.790009
v 0.003549 5.931241 1.796671
v -0.183946 5.930892 1.605847
v 0.004685 6.668036 1.790009
v 0.19674 6.822723 1.601119
v 0.195708 5.930707 1.609189
v 0.003549 5.931241 1.796671
v 0.19674 6.822723 1.601119
v 0.008882 6.967059 1.409016
v 0.006877 5.929418 1.418396
v 0.195708 5.930707 1.609189
v 0.006877 5.929418 1.418396
v -0.183946 5.930892 1.605847
v -0.182913 6.822908 1.597778
v 0.008882 6.967059 1.409016

# Number of normals: 20
vn -0.037215 0.86568 -0.499213
vn -0.510423 0.673011 0.535279
vn -0.744876 -0.664384 -0.061262
vn 0.057862 -0.784272 -0.617714
vn -0.510423 0.673011 0.535279
vn 0.113673 0.379579 0.918149
vn -0.060985 -0.776139 0.627606
vn -0.744876 -0.664384 -0.061262
vn 0.113673 0.379579 0.918149
vn 0.591221 0.68042 0.432997
vn 0.749972 -0.655901 0.085648
vn -0.060985 -0.776139 0.627606
vn 0.591221 0.68042 0.432997
vn -0.037215 0.86568 -0.499213
vn 0.057862 -0.784272 -0.617714
vn 0.749972 -0.655901 0.085648
vn 0.057862 -0.784272 -0.617714
vn -0.744876 -0.664384 -0.061262
vn -0.510423 0.673011 0.535279
vn -0.037215 0.86568 -0.499213

# Number of texture vertices: 20
vt 0 0
vt 1 0
vt 1 1
vt 0 1
vt 0 0
vt 1 0
vt 1 1
vt 0 1
vt 0 0
vt 1 0
vt 1 1
vt 0 1
vt 0 0
vt 1 0
vt 1 1
vt 0 1
vt 0 0
vt 1 0
vt 1 1
vt 0 1

# Number of facets: 12
usemtl Texture_0_1
f 196/250/196 197/251/197 198/252/198
f 198/252/198 199/253/199 196/250/196
f 200/254/200 201/255/201 202/256/202
f 202/256/202 203/257/203 200/254/200
f 204/258/204 205/259/205 206/260/206
f 206/260/206 207/261/207 204/258/204
f 208/262/208 209/263/209 210/264/210
f 210/264/210 211/265/211 208/262/208
f 212/266/212 213/267/213 202/256/202
f 202/256/202 211/265/211 212/266/212
f 208/262/208 201/255/201 214/268/214
f 214/268/214 215/269/215 208/262/208
# Number of vertices: 8
v 0.008882 5.920466 1.409016
v -0.182913 5.920466 1.597778
v -0.183946 5.031177 1.605847
v 0.006877 5.029702 1.418396
v 0.004685 5.920466 1.790009
v 0.003549 5.031525 1.796671
v 0.19674 5.920466 1.601119
v 0.195708 5.030991 1.609189

# Number of normals: 8
vn -0.057867 0.65788 -0.750896
vn -0.623154 0.780639 0.047761
vn -0.747944 -0.66018 -0.068863
vn 0.058386 -0.784405 -0.617495
vn 0.057696 0.665006 0.744606
vn -0.061548 -0.776268 0.627391
vn 0.624697 0.779333 -0.04893
vn 0.745883 -0.661795 0.075411

# Number of texture vertices: 20
vt 0 0
vt 1 0
vt 0 1
vt 1 0
vt 0 0
vt 1 1
vt 1 1
vt 0 1
vt 1 0
vt 0 1
vt 1 1
vt 0 0
vt 1 0
vt 0 0
vt 1 1
vt 0 1
vt 1 0
vt 0 0
vt 1 1
vt 0 1

g arm_3 
usemtl Texture_0
# Number of Polygons: 12
f 216/270/216 217/273/217 218/276/218 
f 218/276/218 219/279/219 216/270/216 
f 217/274/217 220/282/220 221/284/221 
f 221/284/221 218/277/218 217/274/217 
f 220/283/220 222/286/222 223/288/223 
f 223/288/223 221/285/221 220/283/220 
f 222/287/222 216/271/216 219/280/219 
f 219/280/219 223/289/223 222/287/222 
f 219/281/219 218/278/218 221/284/221 
f 221/284/221 223/289/223 219/281/219 
f 222/287/222 220/282/220 217/275/217 
f 217/275/217 216/272/216 222/287/222 
# Number of vertices: 16
v 0.025984 5.02783 1.424043
v -0.181722 5.028405 1.592589
v -0.184489 4.377836 1.59381
v 0.023216 4.377261 1.425264
v -0.013157 5.028422 1.800309
v -0.015924 4.377852 1.801531
v 0.194554 5.027847 1.631731
v 0.191785 4.377277 1.632953
v 0.056672 4.378123 1.12896
v -0.48135 4.380147 1.565568
v -0.483558 3.808742 1.566235
v 0.055771 3.806723 1.129766
v -0.0507 4.37961 2.097676
v -0.051599 3.80821 2.09848
v 0.488631 4.377592 1.661206
v 0.486424 3.806185 1.661874

# Number of normals: 16
vn -0.022691 0.518402 -0.854836
vn -0.755881 0.654392 0.02039
vn -0.972527 0.0037 -0.232761
vn 0.232868 -0.002817 -0.972504
vn 0.02508 0.520856 0.853276
vn -0.233321 0.002818 0.972396
vn 0.759803 0.649781 -0.022001
vn 0.97236 -0.003699 0.233456
vn -0.053751 0.500235 -0.86422
vn -0.770184 0.635955 0.048763
vn -0.835065 -0.499038 -0.231577
vn 0.206656 -0.634944 -0.744405
vn 0.055897 0.502052 0.863029
vn -0.209583 -0.632006 0.746086
vn 0.774195 0.630993 -0.049696
vn 0.831969 -0.503286 0.233519

# Number of texture vertices: 38
vt 0 0
vt 1 0
vt 0 1
vt 1 0
vt 0 0
vt 1 1
vt 1 1
vt 0 1
vt 0 1
vt 1 1
vt 1 0
vt 0 0
vt 1 1
vt 0 1
vt 1 0
vt 0 0
vt 1 1
vt 0 1
vt 0 0
vt 1 0
vt 0 1
vt 1 0
vt 0 0
vt 1 1
vt 1 1
vt 0 1
vt 1 0
vt 0 1
vt 1 1
vt 0 0
vt 1 0
vt 0 0
vt 1 1
vt 0 1
vt 1 0
vt 0 0
vt 1 1
vt 0 1

g cuff_1 
usemtl Sonic_09
# Number of Polygons: 10
f 224/290/224 225/293/225 226/296/226 
f 226/296/226 227/298/227 224/290/224 
f 225/294/225 228/300/228 229/302/229 
f 229/302/229 226/297/226 225/294/225 
f 228/301/228 230/304/230 231/306/231 
f 231/306/231 229/303/229 228/301/228 
f 230/305/230 224/291/224 227/299/227 
f 227/299/227 231/307/231 230/305/230 
f 230/305/230 228/300/228 225/295/225 
f 225/295/225 224/292/224 230/305/230 
usemtl Sonic_14
# Number of Polygons: 12
f 232/308/232 233/311/233 234/314/234 
f 234/314/234 235/317/235 232/308/232 
f 233/312/233 236/320/236 237/322/237 
f 237/322/237 234/315/234 233/312/233 
f 236/321/236 238/324/238 239/326/239 
f 239/326/239 237/323/237 236/321/236 
f 238/325/238 232/309/232 235/318/235 
f 235/318/235 239/327/239 238/325/238 
f 235/319/235 234/316/234 237/322/237 
f 237/322/237 239/327/239 235/319/235 
f 238/325/238 236/320/236 233/313/233 
f 233/313/233 232/310/232 238/325/238 
# Number of vertices: 8
v 0.572287 3.793501 1.278724
v -0.541484 3.808484 1.281906
v -0.750171 2.844475 1.287978
v 0.754997 2.824227 1.283679
v -0.539408 3.812494 1.989869
v -0.748096 2.848486 1.995942
v 0.574364 3.79751 1.986689
v 0.757073 2.828236 1.991642

# Number of normals: 8
vn 0.460014 0.545776 -0.700368
vn -0.570859 0.707074 -0.417332
vn -0.555738 -0.444517 -0.702538
vn 0.680294 -0.542708 -0.492614
vn -0.445077 0.565891 0.694027
vn -0.694554 -0.51858 0.498667
vn 0.589715 0.696194 0.40933
vn 0.543702 -0.451248 0.707647

# Number of texture vertices: 18
vt 0 0
vt 1 0
vt 0 1
vt 1 0
vt 0 0
vt 1 1
vt 1 1
vt 0 1
vt 0 1
vt 1 1
vt 1 0
vt 0 0
vt 1 1
vt 0 1
vt 1 0
vt 0 0
vt 1 1
vt 0 1

g hand_2 
usemtl Texture_0_5
# Number of Polygons: 11
f 240/328/240 241/331/241 242/334/242 
f 242/334/242 243/336/243 240/328/240 
f 241/332/241 244/338/244 245/340/245 
f 245/340/245 242/335/242 241/332/241 
f 244/339/244 246/342/246 247/344/247 
f 247/344/247 245/341/245 244/339/244 
f 246/343/246 240/329/240 243/337/243 
f 243/337/243 247/345/247 246/343/246 
f 246/343/246 244/338/244 241/333/241 
f 241/333/241 240/330/240 246/343/246 
f 245/340/245 247/344/247 243/336/243 242/334/242 
g thumb_1
# Number of vertices: 17
v -0.900947 2.610961 1.275263
v -1.023148 2.652026 1.164276
v -0.824283 2.949692 1.401026
v -0.901691 2.657552 1.000828
v -0.829555 3.205265 1.016158
v -0.638109 2.960348 1.14536
v -0.75639 2.617809 1.080092
v -0.900947 2.610961 1.275263
v -0.900947 2.610961 1.275263
v -0.75639 2.617809 1.080092
v -0.597058 3.564482 1.11277
v -0.866567 3.549057 1.482878
v -1.015729 3.194609 1.271825
v -0.297871 3.532663 1.329309
v -0.824283 2.949692 1.401026
v -0.56738 3.517238 1.699417
v -0.56738 3.517238 1.699417

# Number of normals: 17
vn 0.090577 -0.829308 0.551402
vn -0.922645 -0.385068 0.021168
vn 0.052422 -0.440202 0.896367
vn -0.131576 -0.531871 -0.836541
vn -0.158742 0.182308 -0.970343
vn 0.900502 -0.349157 -0.259203
vn 0.59776 -0.752306 -0.276981
vn 0.090577 -0.829308 0.551402
vn 0.090577 -0.829308 0.551402
vn 0.59776 -0.752306 -0.276981
vn -0.128947 0.849569 -0.511473
vn -0.630216 0.75886 0.164192
vn -0.972919 0.203446 0.109716
vn 0.986078 0.124749 -0.109946
vn 0.052422 -0.440202 0.896367
vn 0.080179 0.44331 0.892775
vn 0.080179 0.44331 0.892775

# Number of texture vertices: 17
vt 0.666667 0
vt 0.666667 0.25
vt 0.5 0
vt 0.666667 0.5
vt 0.5 0.5
vt 0.5 0.75
vt 0.666667 0.75
vt 0.666667 1
vt 1 0.25
vt 1 0.5
vt 0.333333 0.5
vt 0.333333 0.25
vt 0.5 0.25
vt 0.333333 0.75
vt 0.5 1
vt 0.333333 1
vt 0.333333 0

# Number of facets: 20
usemtl Texture_0_2
f 248/346/248 249/347/249 250/348/250
f 249/347/249 251/349/251 252/350/252
f 252/350/252 251/349/251 253/351/253
f 253/351/253 254/352/254 255/353/255
f 256/354/256 257/355/257 251/349/251
f 258/356/258 259/357/259 260/358/260
f 253/351/253 261/359/261 252/350/252
f 262/360/262 263/361/263 261/359/261
f 259/357/259 264/362/264 260/358/260
f 258/356/258 261/359/261 264/362/264
f 249/347/249 260/358/260 250/348/250
f 251/349/251 254/352/254 253/351/253
f 261/359/261 258/356/258 252/350/252
f 264/362/264 250/348/250 260/358/260
f 249/347/249 252/350/252 260/358/260
f 253/351/253 255/353/255 262/360/262
f 256/354/256 251/349/251 249/347/249
f 258/356/258 260/358/260 252/350/252
f 262/360/262 261/359/261 253/351/253
f 258/356/258 264/362/264 259/357/259
# Number of vertices: 8
v -0.750171 2.825261 1.27608
v 0.754997 2.805013 1.271781
v -0.748096 2.829272 1.984044
v 0.757073 2.809022 1.979744
v 0.42832 1.873095 1.215345
v -0.445097 1.884845 1.21784
v -0.444008 1.886952 1.589564
v 0.429409 1.8752 1.587067

# Number of normals: 8
vn -0.670215 0.534475 -0.514925
vn 0.566419 0.440578 -0.696463
vn -0.614871 0.180888 0.767602
vn 0.691646 0.413331 0.592269
vn 0.543009 -0.734917 -0.40625
vn -0.440735 -0.553345 -0.706797
vn -0.546056 -0.774551 0.319208
vn 0.336386 -0.75043 0.568946

# Number of texture vertices: 18
vt 1 1
vt 0 1
vt 0 1
vt 1 1
vt 1 1
vt 0 1
vt 1 1
vt 0 1
vt 0 0
vt 1 0
vt 1 0
vt 0 0
vt 1 1
vt 0 0
vt 1 0
vt 0 1
vt 0 0
vt 1 0

g hand_3 
usemtl Texture_0_6
# Number of Polygons: 11
f 269/371/269 270/373/270 271/375/271 
f 271/375/271 272/378/272 269/371/269 
f 270/374/270 269/372/269 266/366/266 
f 266/366/266 265/364/265 270/374/270 
f 271/376/271 270/373/270 265/363/265 
f 265/363/265 267/368/267 271/376/271 
f 272/379/272 271/377/271 267/367/267 
f 267/367/267 268/370/268 272/379/272 
f 269/371/269 272/380/272 268/369/268 
f 268/369/268 266/365/266 269/371/269 
f 265/363/265 266/365/266 268/369/268 267/367/267 
g leg_1
# Number of vertices: 18
v -0.193892 4.879979 -0.332532
v -0.403044 4.878984 -0.53847
v -0.396478 3.806751 -0.538562
v -0.186012 3.808741 -0.332642
v -0.403044 4.878984 -0.53847
v -0.199786 4.879979 -0.750194
v -0.191906 3.808741 -0.750304
v -0.396478 3.806751 -0.538562
v -0.199786 4.879979 -0.750194
v 0.009364 4.881968 -0.544289
v 0.017246 3.809735 -0.544401
v -0.191906 3.808741 -0.750304
v 0.009364 4.881968 -0.544289
v -0.193892 4.879979 -0.332532
v -0.186012 3.808741 -0.332642
v 0.017246 3.809735 -0.544401
v -0.186012 3.808741 -0.332642
v -0.396478 3.806751 -0.538562

# Number of normals: 18
vn 0.070208 0.650721 0.756064
vn -0.672345 0.740177 0.009465
vn -0.598188 -0.801312 0.008416
vn -0.047742 -0.65 0.758433
vn -0.672345 0.740177 0.009465
vn 0.048833 0.650695 -0.757768
vn -0.069115 -0.649972 -0.756809
vn -0.598188 -0.801312 0.008416
vn 0.048833 0.650695 -0.757768
vn 0.597819 0.801587 -0.008459
vn 0.672404 -0.740123 -0.009514
vn -0.069115 -0.649972 -0.756809
vn 0.597819 0.801587 -0.008459
vn 0.070208 0.650721 0.756064
vn -0.047742 -0.65 0.758433
vn 0.672404 -0.740123 -0.009514
vn -0.047742 -0.65 0.758433
vn -0.598188 -0.801312 0.008416

# Number of texture vertices: 18
vt 0 0
vt 1 0
vt 1 1
vt 0 1
vt 0 0
vt 1 0
vt 1 1
vt 0 1
vt 0 0
vt 1 0
vt 1 1
vt 0 1
vt 0 0
vt 1 0
vt 1 1
vt 0 1
vt 0 0
vt 1 0

# Number of facets: 12
usemtl Texture_0_7
f 273/381/273 274/382/274 275/383/275
f 275/383/275 276/384/276 273/381/273
f 277/385/277 278/386/278 279/387/279
f 279/387/279 280/388/280 277/385/277
f 281/389/281 282/390/282 283/391/283
f 283/391/283 284/392/284 281/389/281
f 285/393/285 286/394/286 287/395/287
f 287/395/287 288/396/288 285/393/285
f 289/397/289 290/398/290 279/387/279
f 279/387/279 288/396/288 289/397/289
f 273/381/273 282/390/282 278/386/278
f 278/386/278 274/382/274 273/381/273
g leg_1_1
# Number of vertices: 18
v -0.193892 3.810263 -0.332532
v -0.403044 3.809464 -0.53847
v -0.396478 2.94785 -0.538562
v -0.186012 2.949448 -0.332642
v -0.403044 3.809464 -0.53847
v -0.199786 3.810263 -0.750194
v -0.191906 2.949448 -0.750304
v -0.396478 2.94785 -0.538562
v -0.199786 3.810263 -0.750194
v 0.009364 3.811861 -0.544289
v 0.017246 2.950247 -0.544401
v -0.191906 2.949448 -0.750304
v 0.009364 3.811861 -0.544289
v -0.193892 3.810263 -0.332532
v -0.186012 2.949448 -0.332642
v 0.017246 2.950247 -0.544401
v -0.186012 2.949448 -0.332642
v -0.396478 2.94785 -0.538562

# Number of normals: 18
vn 0.063245 0.729474 0.681078
vn -0.589553 0.807687 0.008299
vn -0.514403 -0.857518 0.007237
vn -0.043016 -0.728818 0.683355
vn -0.589553 0.807687 0.008299
vn 0.04399 0.72945 -0.682618
vn -0.062274 -0.728792 -0.681897
vn -0.514403 -0.857518 0.007237
vn 0.04399 0.72945 -0.682618
vn 0.514039 0.857736 -0.007274
vn 0.589615 -0.807642 -0.008342
vn -0.062274 -0.728792 -0.681897
vn 0.514039 0.857736 -0.007274
vn 0.063245 0.729474 0.681078
vn -0.043016 -0.728818 0.683355
vn 0.589615 -0.807642 -0.008342
vn -0.043016 -0.728818 0.683355
vn -0.514403 -0.857518 0.007237

# Number of texture vertices: 18
vt 0 0
vt 1 0
vt 1 1
vt 0 1
vt 0 0
vt 1 0
vt 1 1
vt 0 1
vt 0 0
vt 1 0
vt 1 1
vt 0 1
vt 0 0
vt 1 0
vt 1 1
vt 0 1
vt 0 0
vt 1 0

# Number of facets: 12
usemtl Texture_0_8
f 291/399/291 292/400/292 293/401/293
f 293/401/293 294/402/294 291/399/291
f 295/403/295 296/404/296 297/405/297
f 297/405/297 298/406/298 295/403/295
f 299/407/299 300/408/300 301/409/301
f 301/409/301 302/410/302 299/407/299
f 303/411/303 304/412/304 305/413/305
f 305/413/305 306/414/306 303/411/303
f 307/415/307 308/416/308 297/405/297
f 297/405/297 306/414/306 307/415/307
f 291/399/291 300/408/300 296/404/296
f 296/404/296 292/400/292 291/399/291
# Number of vertices: 16
v -0.184699 2.950038 -0.332662
v -0.393831 2.94874 -0.53727
v -0.389891 2.313236 -0.537325
v -0.179444 2.314549 -0.332736
v -0.190574 2.950038 -0.74901
v -0.18532 2.314549 -0.749085
v 0.019891 2.951367 -0.543107
v 0.02383 2.315863 -0.543164
v -0.172019 2.315863 -0.085888
v -0.82583 2.310609 -0.523306
v -0.826957 1.196731 -0.510154
v -0.165453 1.200673 -0.085963
v -0.196246 2.315863 -1.150914
v -0.190993 1.200673 -1.150987
v 0.460104 2.321117 -0.533557
v 0.470834 1.205926 -0.517961

# Number of normals: 16
vn -0.111911 0.51543 0.849593
vn -0.759965 0.64316 -0.093797
vn -0.988133 -0.006938 0.153442
vn 0.154778 0.00036 0.987949
vn 0.103979 0.518038 -0.849014
vn -0.153277 -0.000346 -0.988183
vn 0.751181 0.653137 0.095596
vn 0.988481 0.006941 -0.151185
vn -0.088404 0.428749 0.899088
vn -0.775519 0.625732 -0.083845
vn -0.803579 -0.538404 0.253735
vn 0.100909 -0.63735 0.763939
vn 0.126769 0.494547 -0.859856
vn -0.130581 -0.635221 -0.761211
vn 0.739441 0.640758 0.206533
vn 0.842833 -0.528217 -0.103054

# Number of texture vertices: 38
vt 0 0
vt 1 0
vt 0 1
vt 1 0
vt 0 0
vt 1 1
vt 1 1
vt 0 1
vt 0 1
vt 1 1
vt 1 0
vt 0 0
vt 1 1
vt 0 1
vt 1 0
vt 0 0
vt 1 1
vt 0 1
vt 0 0
vt 1 0
vt 0 1
vt 1 0
vt 0 0
vt 1 1
vt 1 1
vt 0 1
vt 1 0
vt 0 1
vt 1 1
vt 0 0
vt 1 0
vt 0 0
vt 1 1
vt 0 1
vt 1 0
vt 0 0
vt 1 1
vt 0 1

g sock_1 
usemtl Sonic_11
# Number of Polygons: 10
f 309/417/309 310/420/310 311/423/311 
f 311/423/311 312/425/312 309/417/309 
f 310/421/310 313/427/313 314/429/314 
f 314/429/314 311/424/311 310/421/310 
f 313/428/313 315/431/315 316/433/316 
f 316/433/316 314/430/314 313/428/313 
f 315/432/315 309/418/309 312/426/312 
f 312/426/312 316/434/316 315/432/315 
f 315/432/315 313/427/313 310/422/310 
f 310/422/310 309/419/309 315/432/315 
usemtl Sonic_14
# Number of Polygons: 12
f 317/435/317 318/438/318 319/441/319 
f 319/441/319 320/444/320 317/435/317 
f 318/439/318 321/447/321 322/449/322 
f 322/449/322 319/442/319 318/439/318 
f 321/448/321 323/451/323 324/453/324 
f 324/453/324 322/450/322 321/448/321 
f 323/452/323 317/436/317 320/445/320 
f 320/445/320 324/454/324 323/452/323 
f 323/452/323 321/447/321 318/440/318 
f 318/440/318 317/437/317 323/452/323 
f 320/446/320 319/443/319 322/449/322 
f 322/449/322 324/454/324 320/446/320 
# Number of vertices: 10
v -1.73505 1.221064 0.112805
v -1.755272 1.221064 -1.320103
v 1.392327 -0.008897 -0.736593
v 0.499186 -0.004875 -1.78937
v 0.514723 1.673757 -1.1945
v 0.965587 1.477318 -0.730571
v 0.531685 1.673757 0.007265
v -1.754418 0.007227 -1.757565
v -1.724872 0.007227 0.335984
v 0.528732 -0.004875 0.304179

# Number of normals: 10
vn -0.57121 0.683333 0.454725
vn -0.651953 0.548632 -0.523413
vn 0.949536 -0.303135 -0.080563
vn 0.30986 -0.433061 -0.846431
vn 0.304909 0.790442 -0.531255
vn 0.869001 0.480436 0.118403
vn 0.346742 0.680759 0.645242
vn -0.559091 -0.628976 -0.540191
vn -0.621894 -0.371805 0.689209
vn 0.393403 -0.640388 0.659649

# Number of texture vertices: 24
vt 0 0
vt 0 1
vt 1 0
vt 1 1
vt 0 0
vt 0 1
vt 0 0
vt 0 1
vt 1 0
vt 1 1
vt 0 1
vt 1 1
vt 0 0
vt 1 0
vt 0 1
vt 0 0
vt 1 1
vt 1 0
vt 0 0
vt 1 1
vt 0 1
vt 1 0
vt 1 1
vt 0 0

g shoe_1 
usemtl Sonic_10
# Number of Polygons: 6
f 327/461/327 328/463/328 329/466/329 
f 329/466/329 330/469/330 327/461/327 
f 331/471/331 330/469/330 329/467/329 
f 330/470/330 331/472/331 334/477/334 
f 334/477/334 327/462/327 330/470/330 
f 325/455/325 326/457/326 332/473/332 333/475/333 
usemtl Sonic_06
# Number of Polygons: 4
f 331/472/331 325/455/325 333/475/333 
f 333/475/333 334/477/334 331/472/331 
f 329/468/329 326/459/326 325/456/325 
f 325/456/325 331/471/331 329/468/329 
usemtl Sonic_07
# Number of Polygons: 2
f 326/460/326 329/466/329 328/463/328 
f 328/463/328 332/473/332 326/460/326 
usemtl Sonic_12_1
# Number of Polygons: 3
f 328/464/328 327/462/327 334/478/334 
f 334/478/334 333/476/333 332/474/332 
f 332/474/332 328/465/328 334/478/334 
# Number of vertices: 6
v -1.73505 1.221064 0.093594
v -1.755272 1.221064 -1.339314
v -3.241509 0.014828 -0.904533
v -3.235467 0.014828 -0.476364
v -1.754418 0.007227 -1.776776
v -1.724872 0.007227 0.316773

# Number of normals: 6
vn -0.063834 0.79572 0.602292
vn 0.3817 0.754466 -0.533934
vn -0.868507 0.347364 -0.353601
vn -0.659898 -0.633943 0.403301
vn 0.401874 -0.567935 -0.718295
vn 0.59153 -0.518067 0.617818

# Number of texture vertices: 15
vt 0 0
vt 0 1
vt 1 0
vt 1 1
vt 0 0
vt 0 1
vt 1 1
vt 1 0
vt 0 1
vt 0 1
vt 1 1
vt 0 0
vt 1 1
vt 0 1
vt 1 0

g shoe_1_1 
usemtl Sonic_10
# Number of Polygons: 5
f 335/479/335 336/481/336 337/485/337 
f 337/485/337 338/488/338 335/479/335 
f 339/490/339 337/486/337 336/482/336 
f 338/489/338 340/492/340 335/479/335 
f 340/492/340 339/490/339 336/481/336 335/479/335 
usemtl Sonic_12_1
# Number of Polygons: 2
f 339/490/339 340/493/340 338/489/338 
f 338/489/338 337/487/337 339/490/339 
g leg_1_2
# Number of vertices: 18
v -0.193892 4.879979 0.332532
v -0.403044 4.878984 0.53847
v -0.396478 3.806751 0.538562
v -0.186012 3.808741 0.332642
v -0.403044 4.878984 0.53847
v -0.199786 4.879979 0.750194
v -0.191906 3.808741 0.750304
v -0.396478 3.806751 0.538562
v -0.199786 4.879979 0.750194
v 0.009364 4.881968 0.544289
v 0.017246 3.809735 0.544401
v -0.191906 3.808741 0.750304
v 0.009364 4.881968 0.544289
v -0.193892 4.879979 0.332532
v -0.186012 3.808741 0.332642
v 0.017246 3.809735 0.544401
v -0.186012 3.808741 0.332642
v -0.396478 3.806751 0.538562

# Number of normals: 18
vn 0.070208 0.650721 -0.756064
vn -0.672345 0.740177 -0.009465
vn -0.598188 -0.801312 -0.008416
vn -0.047742 -0.65 -0.758433
vn -0.672345 0.740177 -0.009465
vn 0.048833 0.650695 0.757768
vn -0.069115 -0.649972 0.756809
vn -0.598188 -0.801312 -0.008416
vn 0.048833 0.650695 0.757768
vn 0.597819 0.801587 0.008459
vn 0.672404 -0.740123 0.009514
vn -0.069115 -0.649972 0.756809
vn 0.597819 0.801587 0.008459
vn 0.070208 0.650721 -0.756064
vn -0.047742 -0.65 -0.758433
vn 0.672404 -0.740123 0.009514
vn -0.047742 -0.65 -0.758433
vn -0.598188 -0.801312 -0.008416

# Number of texture vertices: 18
vt 0 0
vt 1 0
vt 1 1
vt 0 1
vt 0 0
vt 1 0
vt 1 1
vt 0 1
vt 0 0
vt 1 0
vt 1 1
vt 0 1
vt 0 0
vt 1 0
vt 1 1
vt 0 1
vt 0 0
vt 1 0

# Number of facets: 12
usemtl Texture_0_9
f 341/494/341 342/495/342 343/496/343
f 343/496/343 344/497/344 341/494/341
f 345/498/345 346/499/346 347/500/347
f 347/500/347 348/501/348 345/498/345
f 349/502/349 350/503/350 351/504/351
f 351/504/351 352/505/352 349/502/349
f 353/506/353 354/507/354 355/508/355
f 355/508/355 356/509/356 353/506/353
f 357/510/357 358/511/358 347/500/347
f 347/500/347 356/509/356 357/510/357
f 341/494/341 350/503/350 346/499/346
f 346/499/346 342/495/342 341/494/341
g leg_1_3
# Number of vertices: 18
v -0.193892 3.810263 0.332532
v -0.403044 3.809464 0.53847
v -0.396478 2.94785 0.538562
v -0.186012 2.949448 0.332642
v -0.403044 3.809464 0.53847
v -0.199786 3.810263 0.750194
v -0.191906 2.949448 0.750304
v -0.396478 2.94785 0.538562
v -0.199786 3.810263 0.750194
v 0.009364 3.811861 0.544289
v 0.017246 2.950247 0.544401
v -0.191906 2.949448 0.750304
v 0.009364 3.811861 0.544289
v -0.193892 3.810263 0.332532
v -0.186012 2.949448 0.332642
v 0.017246 2.950247 0.544401
v -0.186012 2.949448 0.332642
v -0.396478 2.94785 0.538562

# Number of normals: 18
vn 0.063245 0.729474 -0.681078
vn -0.589553 0.807687 -0.008299
vn -0.514403 -0.857518 -0.007237
vn -0.043016 -0.728818 -0.683355
vn -0.589553 0.807687 -0.008299
vn 0.04399 0.72945 0.682618
vn -0.062274 -0.728792 0.681897
vn -0.514403 -0.857518 -0.007237
vn 0.04399 0.72945 0.682618
vn 0.514039 0.857736 0.007274
vn 0.589615 -0.807642 0.008342
vn -0.062274 -0.728792 0.681897
vn 0.514039 0.857736 0.007274
vn 0.063245 0.729474 -0.681078
vn -0.043016 -0.728818 -0.683355
vn 0.589615 -0.807642 0.008342
vn -0.043016 -0.728818 -0.683355
vn -0.514403 -0.857518 -0.007237

# Number of texture vertices: 18
vt 0 0
vt 1 0
vt 1 1
vt 0 1
vt 0 0
vt 1 0
vt 1 1
vt 0 1
vt 0 0
vt 1 0
vt 1 1
vt 0 1
vt 0 0
vt 1 0
vt 1 1
vt 0 1
vt 0 0
vt 1 0

# Number of facets: 12
usemtl Texture_0_10
f 359/512/359 360/513/360 361/514/361
f 361/514/361 362/515/362 359/512/359
f 363/516/363 364/517/364 365/518/365
f 365/518/365 366/519/366 363/516/363
f 367/520/367 368/521/368 369/522/369
f 369/522/369 370/523/370 367/520/367
f 371/524/371 372/525/372 373/526/373
f 373/526/373 374/527/374 371/524/371
f 375/528/375 376/529/376 365/518/365
f 365/518/365 374/527/374 375/528/375
f 359/512/359 368/521/368 364/517/364
f 364/517/364 360/513/360 359/512/359
# Number of vertices: 16
v -0.184699 2.950038 0.332662
v -0.393831 2.94874 0.53727
v -0.389891 2.313236 0.537325
v -0.179444 2.314549 0.332736
v -0.190574 2.950038 0.74901
v -0.18532 2.314549 0.749085
v 0.019891 2.951367 0.543107
v 0.02383 2.315863 0.543164
v -0.172019 2.315863 0.085888
v -0.82583 2.310609 0.523306
v -0.826957 1.196731 0.510154
v -0.165453 1.200673 0.085963
v -0.196246 2.315863 1.150914
v -0.190993 1.200673 1.150987
v 0.460104 2.321117 0.533557
v 0.470834 1.205926 0.517961

# Number of normals: 16
vn -0.111911 0.51543 -0.849593
vn -0.759965 0.64316 0.093797
vn -0.988133 -0.006938 -0.153442
vn 0.154778 0.00036 -0.987949
vn 0.103979 0.518038 0.849014
vn -0.153277 -0.000346 0.988183
vn 0.751181 0.653137 -0.095596
vn 0.988481 0.006941 0.151185
vn -0.088404 0.428749 -0.899088
vn -0.775519 0.625732 0.083845
vn -0.803579 -0.538404 -0.253735
vn 0.100909 -0.63735 -0.763939
vn 0.126769 0.494547 0.859856
vn -0.130581 -0.635221 0.761211
vn 0.739441 0.640758 -0.206533
vn 0.842833 -0.528217 0.103054

# Number of texture vertices: 38
vt 0 0
vt 1 0
vt 0 1
vt 1 0
vt 0 0
vt 1 1
vt 1 1
vt 0 1
vt 0 1
vt 1 1
vt 1 0
vt 0 0
vt 1 1
vt 0 1
vt 1 0
vt 0 0
vt 1 1
vt 0 1
vt 0 0
vt 1 0
vt 0 1
vt 1 0
vt 0 0
vt 1 1
vt 1 1
vt 0 1
vt 1 0
vt 0 1
vt 1 1
vt 0 0
vt 1 0
vt 0 0
vt 1 1
vt 0 1
vt 1 0
vt 0 0
vt 1 1
vt 0 1

g sock_1_1 
usemtl Sonic_11
# Number of Polygons: 10
f 377/530/377 378/533/378 379/536/379 
f 379/536/379 380/538/380 377/530/377 
f 378/534/378 381/540/381 382/542/382 
f 382/542/382 379/537/379 378/534/378 
f 381/541/381 383/544/383 384/546/384 
f 384/546/384 382/543/382 381/541/381 
f 383/545/383 377/531/377 380/539/380 
f 380/539/380 384/547/384 383/545/383 
f 383/545/383 381/540/381 378/535/378 
f 378/535/378 377/532/377 383/545/383 
usemtl Sonic_14
# Number of Polygons: 12
f 385/548/385 386/551/386 387/554/387 
f 387/554/387 388/557/388 385/548/385 
f 386/552/386 389/560/389 390/562/390 
f 390/562/390 387/555/387 386/552/386 
f 389/561/389 391/564/391 392/566/392 
f 392/566/392 390/563/390 389/561/389 
f 391/565/391 385/549/385 388/558/388 
f 388/558/388 392/567/392 391/565/391 
f 391/565/391 389/560/389 386/553/386 
f 386/553/386 385/550/385 391/565/391 
f 388/559/388 387/556/387 390/562/390 
f 390/562/390 392/567/392 388/559/388 
# Number of vertices: 10
v -1.73505 1.221064 -0.112805
v -1.755272 1.221064 1.320103
v 1.392327 -0.008897 0.736593
v 0.499186 -0.004875 1.78937
v 0.514723 1.673757 1.1945
v 0.965587 1.477318 0.730571
v 0.531685 1.673757 -0.007265
v -1.754418 0.007227 1.757565
v -1.724872 0.007227 -0.335984
v 0.528732 -0.004875 -0.304179

# Number of normals: 10
vn -0.57121 0.683333 -0.454725
vn -0.651953 0.548632 0.523413
vn 0.949536 -0.303135 0.080563
vn 0.30986 -0.433061 0.846431
vn 0.304909 0.790442 0.531255
vn 0.869001 0.480436 -0.118403
vn 0.346742 0.680759 -0.645242
vn -0.559091 -0.628976 0.540191
vn -0.621894 -0.371805 -0.689209
vn 0.393403 -0.640388 -0.659649

# Number of texture vertices: 24
vt 0 0
vt 0 1
vt 1 0
vt 1 1
vt 0 0
vt 0 1
vt 0 0
vt 0 1
vt 1 0
vt 1 1
vt 0 1
vt 1 1
vt 0 0
vt 1 0
vt 0 1
vt 0 0
vt 1 1
vt 1 0
vt 0 0
vt 1 1
vt 0 1
vt 1 0
vt 1 1
vt 0 0

g shoe_1_2 
usemtl Sonic_10
# Number of Polygons: 6
f 395/574/395 396/576/396 397/579/397 
f 397/579/397 398/582/398 395/574/395 
f 399/584/399 398/582/398 397/580/397 
f 398/583/398 399/585/399 402/590/402 
f 402/590/402 395/575/395 398/583/398 
f 393/568/393 394/570/394 400/586/400 401/588/401 
usemtl Sonic_06
# Number of Polygons: 4
f 399/585/399 393/568/393 401/588/401 
f 401/588/401 402/590/402 399/585/399 
f 397/581/397 394/572/394 393/569/393 
f 393/569/393 399/584/399 397/581/397 
usemtl Sonic_07
# Number of Polygons: 2
f 394/573/394 397/579/397 396/576/396 
f 396/576/396 400/586/400 394/573/394 
usemtl Sonic_12_1
# Number of Polygons: 3
f 396/577/396 395/575/395 402/591/402 
f 402/591/402 401/589/401 400/587/400 
f 400/587/400 396/578/396 402/591/402 
# Number of vertices: 6
v -1.73505 1.221064 -0.093594
v -1.755272 1.221064 1.339314
v -3.241509 0.014828 0.904533
v -3.235467 0.014828 0.476364
v -1.754418 0.007227 1.776776
v -1.724872 0.007227 -0.316773

# Number of normals: 6
vn -0.063834 0.79572 -0.602292
vn 0.3817 0.754466 0.533934
vn -0.868507 0.347364 0.353601
vn -0.659898 -0.633943 -0.403301
vn 0.401874 -0.567935 0.718295
vn 0.59153 -0.518067 -0.617818

# Number of texture vertices: 15
vt 0 0
vt 0 1
vt 1 0
vt 1 1
vt 0 0
vt 0 1
vt 1 1
vt 1 0
vt 0 1
vt 0 1
vt 1 1
vt 0 0
vt 1 1
vt 0 1
vt 1 0

g shoe_1_3 
usemtl Sonic_10
# Number of Polygons: 5
f 403/592/403 404/594/404 405/598/405 
f 405/598/405 406/601/406 403/592/403 
f 407/603/407 405/599/405 404/595/404 
f 406/602/406 408/605/408 403/592/403 
f 408/605/408 407/603/407 404/594/404 403/592/403 
usemtl Sonic_12_1
# Number of Polygons: 2
f 407/603/407 408/606/408 406/602/406 
f 406/602/406 405/600/405 407/603/407 
# Number of vertices: 184
v -3.578168 8.407744 -0.181016
v -3.705668 8.197699 -0.207685
v -3.92752 8.374697 0.011455
v -2.76059 8.210304 -0.105609
v -2.74983 8.120168 0.010495
v -3.802957 8.083716 0.005397
v -2.76059 8.210304 0.128577
v -3.705668 8.197699 0.228503
v -3.578168 8.407744 0.201401
v -3.59941 8.526152 0.01034
v -2.760602 8.287868 0.009052
v -0.840714 11.064703 2.485568
v -1.361706 12.50912 2.687752
v -0.946862 11.57093 2.143574
v -1.420516 11.866726 1.660371
v -2.298089 8.245793 -1.278218
v -2.191324 8.064533 -1.342473
v -2.904167 8.009051 -0.503664
v -2.973605 8.374033 -0.217694
v -0.840714 11.064703 -2.464211
v -0.946862 11.570928 -2.122217
v -1.361706 12.509122 -2.666395
v -1.420516 11.866727 -1.639012
v -1.841482 7.367584 -1.199103
v -1.174374 7.525874 -1.732286
v -2.973605 8.374033 0.23905
v -2.392265 8.634006 0.008595
v -1.840952 8.507599 -1.42239
v -1.962048 8.60695 -1.850292
v -1.016846 7.147733 -0.745886
v -1.841482 7.367584 1.220459
v -2.132353 7.328237 0.63021
v -2.191324 8.064533 1.363829
v -2.904167 8.009051 0.52502
v -2.298089 8.245793 1.299574
v -1.962048 8.60695 1.871648
v -1.845073 8.500938 1.4227
v -2.132353 7.328237 -0.608854
v -1.016846 7.147733 0.767242
v -1.659761 8.210384 -1.91162
v -1.659761 8.210384 1.932976
v -1.174245 7.52572 1.769819
v -2.016411 11.116121 1.90689
v -1.506043 12.033567 1.058714
v -1.390772 12.989258 2.934064
v -0.020967 12.408519 1.634854
v -0.438609 10.881684 2.751535
v 2.31737 9.34587 1.424439
v 6.431993 10.95505 2.463691
v 2.669378 11.955441 2.253203
v 1.925815 10.797947 3.135658
v 1.616969 9.435731 3.00143
v 0.060024 9.120586 2.858257
v 0.878123 7.310494 2.262061
v 0.183004 7.663557 2.160219
v 0.265565 6.999791 0.010678
v 2.453022 8.25153 0.010678
v 2.152172 7.58169 0.855872
v 5.08076 7.073709 2.538658
v 1.583866 7.195937 0.010678
v 5.563319 8.835104 0.010678
v 6.457973 12.996141 0.013753
v 2.036918 12.687399 1.196517
v 2.555843 10.993361 0.842555
v 5.08076 7.073711 -2.517302
v 0.878123 7.310496 -2.240705
v 2.31737 9.34587 -1.403083
v 2.555843 10.993361 -0.821196
v -1.927847 10.21992 -2.214255
v -1.789017 10.206206 -2.381792
v -1.765739 9.272583 -2.199921
v -1.475491 10.290581 -2.452813
v -1.812772 9.202717 -1.994005
v 0.183004 7.663557 -2.138863
v -0.356149 7.740586 -2.102034
v -1.506043 12.033567 -1.037354
v -0.020967 12.408521 -1.613495
v -1.390772 12.989262 -2.912707
v -0.438609 10.881684 -2.730179
v -2.780177 10.953342 -1.19823
v -2.676978 11.526784 0.01068
v 2.152172 7.58169 -0.834516
v 2.036918 12.687399 -1.175158
v 6.431993 10.95505 -2.443321
v 1.616969 9.435733 -2.980074
v -2.016411 11.116123 -1.885532
v -2.239019 10.913026 -1.933846
v -2.271824 10.595525 -1.94908
v -2.997374 9.946095 -0.78889
v -3.191523 9.352089 -0.451921
v -3.134868 9.982478 -0.672168
v -3.271118 9.370665 0.010678
v -3.302526 9.979114 0.010678
v -3.191523 9.352089 0.473277
v -3.134868 9.982478 0.693524
v -2.997374 9.946093 0.810246
v -2.877896 10.753685 1.209526
v -2.873968 10.460202 1.278453
v -2.239019 10.913024 1.955203
v -2.271824 10.595525 1.970437
v -1.789017 10.206206 2.40315
v -1.927847 10.219918 2.235612
v -1.765739 9.272582 2.221277
v -2.877896 10.753685 -1.188169
v -2.873968 10.460202 -1.257095
v -1.558607 10.290581 2.474171
v 1.930304 10.801405 -3.135659
v 2.669378 11.955441 -2.233819
v 0.060024 9.120588 -2.836901
v -1.336993 8.833086 -2.229011
v -0.419177 8.543353 -2.41516
v -1.812772 9.202715 2.015361
v -1.336994 8.833084 2.250367
v -0.418917 8.543044 2.469866
v -0.355892 7.740276 2.156074
v -3.178264 10.704942 0.010678
v -2.780177 10.953341 1.219588
v -2.892795 8.879331 -0.293134
v -3.082991 8.884572 -0.244689
v -3.16836 8.884492 0.010678
v -3.082991 8.884572 0.266045
v -2.920596 9.344392 0.552155
v -2.819497 9.997227 0.801695
v -2.600718 10.463337 1.191695
v -2.25999 10.492468 1.7969
v -1.954065 10.166822 2.044768
v -2.920596 9.344392 -0.530799
v -2.819497 9.997227 -0.780339
v -2.600718 10.463337 -1.170339
v -2.25999 10.492468 -1.775544
v -1.954065 10.166822 -2.023411
v -2.892795 8.879334 0.325029
v -2.920998 8.651971 0.115076
v -2.988795 8.612723 0.010678
v -2.920998 8.651971 -0.09372
v 1.642764 13.599482 0.01068
v -1.265219 12.817678 0.01068
v -1.005696 8.39819 2.30902
v -1.005952 8.398499 -2.254069
v -1.859228 10.504333 -2.1611
v -1.383677 8.15861 -1.932934
v -1.859228 10.504333 2.182456
v -1.383677 8.15861 1.95429
v -1.799631 9.341675 -2.081161
v -2.849137 8.179846 0.010678
v -1.799631 9.341675 2.102517
v -3.295134 9.967438 0.010678
v -3.254713 9.517351 0.010678
v -2.626134 10.854854 -1.111366
v -2.531921 9.517351 -1.276278
v -2.285981 8.15861 -1.111366
v -2.285981 8.15861 1.132722
v -2.531921 9.517351 1.297634
v -2.626134 10.854854 1.132722
v -2.960634 10.411146 0.5717
v -3.274925 9.742395 0.010678
v -2.893318 9.517351 0.654156
v -2.579027 10.186102 1.237692
v -2.926975 9.964249 0.624184
v -3.051925 8.848598 0.010678
v -2.567559 8.169229 0.5717
v -2.40895 8.83798 1.196214
v -2.730438 8.843289 0.603445
v -2.567559 8.169229 -0.550344
v -2.893318 9.517351 -0.6328
v -2.40895 8.83798 -1.174858
v -2.730438 8.843289 -0.582089
v -2.960634 10.411146 -0.550344
v -2.579027 10.186102 -1.216336
v -2.926975 9.964249 -0.602828
v -2.242681 10.679594 -1.636232
v -1.82943 9.923003 -2.18431
v -2.165777 9.429512 -1.763286
v -2.204229 10.054553 -1.732045
v -2.165777 9.429512 1.784642
v -1.82943 9.923003 2.205667
v -2.242681 10.679594 1.657588
v -2.204229 10.054553 1.753401
v -1.876387 8.15861 1.594979
v -1.633212 8.750143 2.046715
v -2.021082 8.794063 1.700549
v -1.633212 8.750143 -2.025358
v -1.876387 8.15861 -1.573623
v -2.021082 8.794063 -1.679193

# Number of normals: 184
vn -0.107907 0.603384 -0.790116
vn -0.349021 -0.275321 -0.895758
vn -0.934618 0.355646 0.00231
vn 0.241534 0.029594 -0.969941
vn 0.082706 -0.996569 -0.003278
vn -0.554319 -0.832235 -0.010706
vn 0.242988 0.033987 0.969434
vn -0.350415 -0.285704 0.891954
vn -0.105759 0.604694 0.789405
vn -0.079095 0.996867 0.000355
vn 0.28556 0.958331 -0.007638
vn -0.629746 0.152974 0.761589
vn -0.887897 -0.326256 0.32434
vn -0.817477 0.028591 0.575251
vn -0.848121 0.200314 0.490475
vn -0.815461 0.239753 -0.526823
vn -0.686847 -0.346633 -0.638817
vn -0.863876 -0.412547 -0.289004
vn -0.830384 0.518147 -0.204903
vn -0.630373 0.138799 -0.763783
vn -0.817477 0.028593 -0.575251
vn -0.887897 -0.326255 -0.32434
vn -0.848121 0.200315 -0.490474
vn -0.441276 -0.745526 -0.499467
vn -0.219137 -0.711095 -0.668074
vn -0.734924 0.635876 0.235688
vn -0.353989 0.935248 0.001774
vn -0.615863 0.783758 0.080231
vn -0.854553 0.025467 -0.518739
vn -0.068389 -0.977668 -0.198715
vn -0.444347 -0.745159 0.497287
vn -0.462828 -0.878428 0.118975
vn -0.686847 -0.346633 0.638817
vn -0.880351 -0.353049 0.316762
vn -0.814058 0.254755 0.521928
vn -0.851527 0.020612 0.523905
vn -0.610654 0.788921 -0.068595
vn -0.410309 -0.90461 -0.11544
vn -0.074204 -0.98015 0.183847
vn -0.479052 -0.375908 -0.793223
vn -0.493794 -0.370643 0.786633
vn -0.234411 -0.712202 0.661679
vn -0.461291 0.575696 0.675118
vn -0.622834 0.739843 0.254383
vn -0.450627 0.630683 0.631803
vn 0.069283 0.843624 0.532445
vn -0.156409 0.177829 0.971552
vn 0.966652 -0.104503 0.233799
vn 0.99141 0.064394 0.11384
vn 0.188164 0.969447 0.157371
vn -0.012597 0.295869 0.955145
vn 0.162883 -0.230057 0.959449
vn -0.181336 -0.22155 0.95814
vn -0.151722 -0.817969 0.554893
vn -0.189667 -0.665525 0.721874
vn -0.005994 -0.999982 0
vn 0.752435 -0.658667 0
vn 0.353995 -0.905742 -0.233062
vn 0.914925 -0.326055 0.23791
vn 0.437236 -0.899347 0
vn 0.975474 -0.220113 0
vn 0.982712 0.185142 0.000611
vn 0.176403 0.392822 0.902537
vn 0.912468 0.355173 0.203112
vn 0.914925 -0.326055 -0.23791
vn -0.151721 -0.817969 -0.554894
vn 0.966652 -0.104519 -0.233795
vn 0.912369 0.355336 -0.203272
vn -0.851005 -0.223353 -0.475293
vn -0.506893 0.034349 -0.861324
vn -0.679851 -0.171171 -0.713094
vn -0.317756 0.104424 -0.942405
vn -0.991275 0.081249 -0.103786
vn -0.208077 -0.658941 -0.722842
vn -0.145172 -0.622039 -0.769411
vn -0.622834 0.739843 -0.254382
vn 0.06828 0.844457 -0.531253
vn -0.450627 0.630684 -0.631802
vn -0.16649 0.172418 -0.970852
vn -0.773438 0.538765 -0.333954
vn -0.733678 0.679498 0
vn 0.353995 -0.905743 0.233061
vn 0.176967 0.392959 -0.902367
vn 0.991602 0.063873 -0.112456
vn 0.16451 -0.236854 -0.957516
vn -0.457525 0.572757 -0.680162
vn -0.580752 0.359793 -0.730257
vn -0.758001 -0.31438 -0.571489
vn -0.259868 -0.517782 -0.81509
vn -0.759411 -0.278677 -0.587906
vn -0.901093 -0.030265 -0.432568
vn -0.985306 -0.170799 0
vn -0.998302 0.058257 0
vn -0.759411 -0.278677 0.587906
vn -0.901094 -0.030265 0.432567
vn -0.259868 -0.517782 0.815089
vn -0.863083 0.230311 0.449493
vn -0.491756 -0.524373 0.695133
vn -0.580752 0.359793 0.730257
vn -0.758001 -0.314381 0.571488
vn -0.541359 0.027019 0.840358
vn -0.851006 -0.223353 0.475292
vn -0.687331 -0.175678 0.704779
vn -0.863083 0.23031 -0.449495
vn -0.491756 -0.524372 -0.695133
vn -0.340366 0.106052 0.934293
vn -0.012285 0.294533 -0.955562
vn 0.188902 0.970025 -0.152861
vn -0.189985 -0.228088 -0.954925
vn -0.362279 -0.264227 -0.893833
vn -0.21717 -0.361656 -0.906665
vn -0.991035 0.081461 0.105899
vn -0.377484 -0.243295 0.893484
vn -0.203234 -0.342351 0.917328
vn -0.128387 -0.631095 0.765007
vn -0.94793 0.31848 0
vn -0.773438 0.538766 0.333954
vn -0.221246 -0.543353 -0.809826
vn -0.638162 -0.496596 -0.588338
vn -0.92334 -0.383984 0
vn -0.649359 -0.492332 0.579605
vn -0.270668 -0.382682 0.883342
vn 0.15176 -0.602295 0.783716
vn 0.093285 -0.889014 0.448277
vn -0.726242 -0.611676 0.313728
vn -0.897963 -0.370996 0.236695
vn -0.263232 -0.385703 -0.884275
vn 0.151755 -0.602294 -0.783717
vn 0.093283 -0.889013 -0.448278
vn -0.726243 -0.611674 -0.313729
vn -0.897963 -0.370995 -0.236697
vn -0.262851 -0.539927 0.799617
vn -0.380715 -0.675205 0.631786
vn -0.713672 -0.70048 0
vn -0.368011 -0.672834 -0.641765
vn -0.022938 0.999737 0
vn -0.474763 0.880114 0
vn -0.300174 -0.311972 0.901426
vn -0.277018 -0.327497 -0.903331
vn -0.786094 0.013484 -0.617959
vn -0.551738 -0.350961 -0.756579
vn -0.786094 0.013484 0.617959
vn -0.551738 -0.350961 0.756579
vn -0.666828 -0.216013 -0.713217
vn -0.961971 -0.273153 0
vn -0.666828 -0.216013 0.713217
vn -0.998222 -0.059601 0
vn -0.981686 -0.190505 0
vn -0.834602 0.027567 -0.550164
vn -0.838118 -0.114105 -0.533422
vn -0.809322 -0.221007 -0.544201
vn -0.809322 -0.221007 0.544201
vn -0.838118 -0.114105 0.533422
vn -0.834602 0.027567 0.550164
vn -0.863711 0.001132 0.503987
vn -0.996967 -0.077819 0
vn -0.862202 -0.147772 0.484532
vn -0.836196 0.011298 0.548314
vn -0.86512 -0.021593 0.5011
vn -0.958579 -0.284826 0
vn -0.86885 -0.221033 0.442995
vn -0.826932 -0.221378 0.51689
vn -0.855917 -0.237245 0.459479
vn -0.86885 -0.221033 -0.442995
vn -0.862202 -0.147772 -0.484532
vn -0.826932 -0.221378 -0.51689
vn -0.855917 -0.237245 -0.459479
vn -0.863711 0.001132 -0.503987
vn -0.836196 0.011298 -0.548314
vn -0.86512 -0.021593 -0.5011
vn -0.801298 0.040629 -0.596884
vn -0.746104 -0.056708 -0.663411
vn -0.753419 -0.151939 -0.639746
vn -0.793328 0.006202 -0.608764
vn -0.753419 -0.151939 0.639746
vn -0.746104 -0.056708 0.663411
vn -0.801298 0.040629 0.596884
vn -0.793327 0.006202 0.608764
vn -0.652541 -0.296352 0.697399
vn -0.62815 -0.287623 0.72298
vn -0.714662 -0.249357 0.653513
vn -0.62815 -0.287623 -0.72298
vn -0.652541 -0.296352 -0.697399
vn -0.714662 -0.249357 -0.653513

# Number of texture vertices: 251
vt 0.576471 0.4
vt 0.733333 0.509804
vt 0.878431 0.301961
vt 0.207843 0.619608
vt 0.227451 0.709804
vt 0.843137 0.560784
vt 0.207843 0.619608
vt 0.733333 0.509804
vt 0.576471 0.4
vt 0.564706 0.305882
vt 0.184314 0.541176
vt 1.772549 0.894118
vt 0.709804 0.270588
vt 1.866667 -0.819608
vt 0.784314 0.121569
vt 1.6 0.094118
vt 0.713726 0.215686
vt 1.458824 -0.239216
vt 0.780392 0.168627
vt 0.752941 0.168627
vt 0.345098 0.509804
vt 0.309804 0.52549
vt 0.411765 0.52549
vt 0.466667 0.486274
vt 0.223529 0.894118
vt 0.709804 0.270588
vt 0.392157 0.094118
vt 0.713726 0.215686
vt 0.129412 -0.819608
vt 0.784314 0.121569
vt 0.533333 -0.239216
vt 0.243137 0.168627
vt 0.780392 0.168627
vt 0.329412 0.6
vt 0.258824 0.588235
vt 0.062745 0.556863
vt 0.529412 0.486274
vt 0.498039 0.466667
vt 0.32549 0.470588
vt 0.815686 0.470588
vt 0.239216 0.47451
vt 0.827451 0.47451
vt 0.796078 0.027451
vt 0.403922 0.647059
vt 0.721569 0.647059
vt 0.721569 0.407843
vt 0.062745 0.952941
vt 0.666667 0.6
vt 0.6 0.6
vt 0.686275 0.52549
vt 0.584314 0.52549
vt 0.65098 0.509804
vt 0.756863 0.47451
vt 0.827451 0.47451
vt 0.796078 0.027451
vt 0.666667 0.470588
vt 0.815686 0.470588
vt 0.396078 0.6
vt 0.592157 0.647059
vt 0.721569 0.647059
vt 0.721569 0.596078
vt 0.062745 0.952941
vt 0.231373 0.517647
vt 0.356863 0.05098
vt 0.764706 0.517647
vt 0.356863 0.05098
vt 0.741176 0.588235
vt 0.062745 0.556863
vt 0.807843 0.227451
vt 0.760784 0.227451
vt 0.701961 0.792157
vt 0.788235 0.145098
vt 0.701961 0.145098
vt 0.972549 0.784314
vt 0.780392 0.082353
vt 0.772549 0.623529
vt 0.619608 0.12549
vt 0.890196 0.678431
vt 0.67451 0.298039
vt 0.380392 0.423529
vt 0.67451 0.384314
vt 0.262745 0.309804
vt 0.376471 0.235294
vt 0.458824 0.329412
vt 0.517647 0.486274
vt 0.92549 0.521569
vt 0.643137 0.447059
vt 0.584314 0.623529
vt 0.780392 0.588235
vt 0.647059 0.592157
vt 0.647059 0.666667
vt 0.647059 0.501961
vt 0.498039 0.443137
vt 0.439216 0.611765
vt 0.658824 0.45098
vt 0.313726 0.670588
vt 0.498039 0.529412
vt 0.52549 0.678431
vt 0.643137 0.254902
vt 0.25098 0.572549
vt 0.2 0.156863
vt 0.662745 0.203922
vt 0.423529 0.109804
vt 0.72549 0.427451
vt 0.396078 0.294118
vt 0.611765 0.4
vt 0.505882 0.729412
vt 0.227451 0.509804
vt 0.584314 0.623529
vt 0.215686 0.588235
vt 0.380392 0.423529
vt 0.321569 0.384314
vt 0.396078 0.294118
vt 0.384314 0.4
vt 0.192157 0.317647
vt 0.168627 0.317647
vt 0.192157 0.411765
vt 0.803922 0.411765
vt 0.156863 0.313725
vt 0.772549 0.313725
vt 0.807843 0.415686
vt 0.235294 0.415686
vt 0.647059 0.592157
vt 0.690196 0.580392
vt 0.486275 0.976471
vt 0.294118 0.792157
vt 0.294118 0.145098
vt 0.788235 0.145098
vt 0.223529 0.623529
vt 0.619608 0.12549
vt 0.023529 0.784314
vt 0.780392 0.082353
vt 0.105882 0.678431
vt 0.67451 0.298039
vt 0.329412 0.235294
vt 0.498039 0.176471
vt 0.498039 0.878431
vt 0.337255 0.45098
vt 0.423529 0.109804
vt 0.270588 0.427451
vt 0.023529 0.407843
vt 0.403922 0.529412
vt 0.070588 0.521569
vt 0.517647 0.486274
vt 0.235294 0.227451
vt 0.807843 0.227451
vt 0.227451 0.243137
vt 0.227451 0.27451
vt 0.388235 0.32549
vt 0.435294 0.384314
vt 0.403922 0.32549
vt 0.498039 0.384314
vt 0.498039 0.321569
vt 0.560784 0.384314
vt 0.592157 0.32549
vt 0.607843 0.32549
vt 0.662745 0.25098
vt 0.67451 0.278431
vt 0.768627 0.243137
vt 0.768627 0.27451
vt 0.827451 0.317647
vt 0.803922 0.317647
vt 0.803922 0.411765
vt 0.333333 0.25098
vt 0.321569 0.278431
vt 0.772549 0.313725
vt 0.839216 0.313725
vt 0.458824 0.32549
vt 0.376471 0.235294
vt 0.643137 0.447059
vt 0.768627 0.458824
vt 0.796078 0.392157
vt 0.686275 0.498039
vt 0.796078 0.807843
vt 0.807843 0.415686
vt 0.760784 0.415686
vt 0.768627 0.458824
vt 0.796078 0.392157
vt 0.686275 0.498039
vt 0.796078 0.807843
vt 0.690196 0.580392
vt 0.486275 0.976471
vt 0.498039 0.254902
vt 0.666667 0.235294
vt 0.443137 0.435294
vt 0.462745 0.431373
vt 0.498039 0.431373
vt 0.533333 0.431373
vt 0.584314 0.396078
vt 0.607843 0.34902
vt 0.647059 0.301961
vt 0.686275 0.305882
vt 0.729412 0.317647
vt 0.411765 0.396078
vt 0.388235 0.34902
vt 0.34902 0.301961
vt 0.309804 0.305882
vt 0.266667 0.317647
vt 0.556863 0.435294
vt 0.517647 0.458824
vt 0.498039 0.462745
vt 0.478431 0.458824
vt 0.498039 0.454902
vt 0.498039 0.788235
vt 0.592157 0.309804
vt 0.592157 0.309804
vt 0.714185 0.629171
vt 0.675055 0.329596
vt 0.285815 0.629171
vt 0.324945 0.329596
vt 0.708452 0.476758
vt 0 0.125076
vt 0.291548 0.476758
vt 0 0.633742
vt 0 0.503422
vt 0.791164 0.767223
vt 0.774454 0.50249
vt 0.742161 0.227626
vt 0.257839 0.227626
vt 0.225546 0.50249
vt 0.208836 0.767223
vt 0.11416 0.752654
vt 0 0.573008
vt 0.134146 0.503763
vt 0.218249 0.652821
vt 0.125676 0.649646
vt 0 0.274634
vt 0.186576 0.140974
vt 0.240346 0.342327
vt 0.154634 0.269066
vt 0.813424 0.140974
vt 0.865855 0.503763
vt 0.759654 0.342327
vt 0.845366 0.269066
vt 0.88584 0.752654
vt 0.781751 0.652821
vt 0.874324 0.649646
vt 0.740335 0.69054
vt 0.712431 0.555741
vt 0.733927 0.48678
vt 0.737246 0.592966
vt 0.266073 0.48678
vt 0.287569 0.555741
vt 0.259665 0.69054
vt 0.262754 0.592966
vt 0.296762 0.288846
vt 0.304869 0.39694
vt 0.280654 0.379655
vt 0.695131 0.39694
vt 0.703238 0.288846
vt 0.719346 0.379655

g Default 
usemtl attach_001C153C_material_0
# Number of Polygons: 16
f 409/607/409 410/608/410 411/609/411 
f 412/610/412 413/611/413 410/608/410 
f 414/612/414 413/611/413 416/614/416 
f 417/615/417 418/616/418 411/609/411 
f 412/610/412 409/607/409 419/617/419 
f 409/607/409 412/610/412 410/608/410 
f 410/608/410 414/612/414 411/609/411 
f 411/609/411 414/612/414 416/614/416 
f 417/615/417 416/614/416 415/613/415 
f 418/616/418 417/615/417 419/617/419 
f 411/609/411 418/616/418 409/607/409 
f 411/609/411 416/614/416 417/615/417 
f 413/611/413 414/612/414 410/608/410 
f 413/611/413 415/613/415 416/614/416 
f 409/607/409 418/616/418 419/617/419 
f 417/615/417 415/613/415 419/617/419 
usemtl attach_001C153C_material_1
# Number of Polygons: 24
f 422/622/422 420/618/420 421/620/421 
f 424/627/424 425/628/425 426/629/426 
f 430/635/430 428/631/428 429/633/429 
f 424/627/424 427/630/427 436/645/436 
f 424/627/424 436/645/436 437/647/437 
f 442/657/442 441/656/441 443/658/443 
f 444/659/444 445/662/445 443/658/443 
f 434/643/434 443/658/443 445/662/445 
f 438/650/438 432/640/432 433/641/433 
f 437/647/437 448/669/448 425/628/425 
f 441/656/441 449/671/449 444/659/444 
f 450/673/450 439/654/439 447/665/447 
f 426/629/426 446/664/446 440/655/440 
f 433/641/433 483/731/483 438/650/438 
f 447/665/447 523/788/523 450/673/450 
f 422/622/422 421/620/421 423/624/423 
f 424/627/424 426/629/426 427/630/427 
f 430/635/430 429/633/429 431/637/431 
f 427/630/427 435/644/435 436/645/436 
f 442/657/442 443/658/443 434/643/434 
f 434/643/434 445/662/445 435/644/435 
f 437/647/437 425/628/425 424/627/424 
f 441/656/441 444/659/444 443/658/443 
f 426/629/426 440/655/440 442/657/442 
usemtl attach_001C153C_material_2
# Number of Polygons: 156
f 423/625/423 451/675/451 422/623/422 
f 452/677/452 453/680/453 454/682/454 
f 454/682/454 453/680/453 455/684/455 
f 457/688/457 458/689/458 459/690/459 
f 460/691/460 459/690/459 461/693/461 
f 462/694/462 460/691/460 463/696/463 
f 462/694/462 463/696/463 464/697/464 
f 447/666/447 464/697/464 463/696/463 
f 466/701/466 467/702/467 462/695/462 
f 469/705/469 456/687/456 465/699/465 
f 470/707/470 471/709/471 472/711/472 
f 472/711/472 471/709/471 454/683/454 
f 456/687/456 457/688/457 460/692/460 
f 475/717/475 473/713/473 493/750/493 
f 475/717/475 476/719/476 469/705/469 
f 477/721/477 478/722/478 479/723/479 
f 479/723/479 478/722/478 480/725/480 
f 481/727/481 479/724/479 437/648/437 
f 482/729/482 464/697/464 438/651/438 
f 484/732/484 485/735/485 486/737/486 
f 486/737/486 485/735/485 487/739/487 
f 489/742/489 484/733/484 488/741/488 
f 474/716/474 473/714/473 490/744/490 
f 491/745/491 470/707/470 476/719/476 
f 492/747/492 475/718/475 493/749/493 
f 494/751/494 480/725/480 478/722/478 
f 495/753/495 478/722/478 477/721/477 
f 497/755/497 498/756/498 499/757/499 
f 499/757/499 498/756/498 501/759/501 
f 501/759/501 500/758/500 502/760/502 
f 503/761/503 502/760/502 504/762/504 
f 505/763/505 503/761/503 506/764/506 
f 507/765/507 505/763/505 508/766/508 
f 507/765/507 508/766/508 510/768/510 
f 509/767/509 510/768/510 511/769/511 
f 484/733/484 431/638/431 494/751/494 
f 488/741/488 494/751/494 495/753/495 
f 512/770/512 495/753/495 496/754/496 
f 461/693/461 455/685/455 514/772/514 
f 459/690/459 460/691/460 457/688/457 
f 492/748/492 493/750/493 515/774/515 
f 420/619/420 451/675/451 514/772/514 
f 421/621/421 420/619/420 455/685/455 
f 423/625/423 421/621/421 452/678/452 
f 480/726/480 494/752/494 428/632/428 
f 428/632/428 494/752/494 429/634/429 
f 469/705/469 465/699/465 475/718/475 
f 487/740/487 515/774/515 517/776/517 
f 517/776/517 493/750/493 482/729/482 
f 475/717/475 492/747/492 476/719/476 
f 516/775/516 476/719/476 492/747/492 
f 465/699/465 468/703/468 490/744/490 
f 517/776/517 519/779/519 518/777/518 
f 520/781/520 445/663/445 444/660/444 
f 511/769/511 444/660/444 521/783/521 
f 461/693/461 511/769/511 521/783/521 
f 463/696/463 461/693/461 522/785/522 
f 499/757/499 501/759/501 524/789/524 
f 524/789/524 501/759/501 503/761/503 
f 525/790/525 503/761/503 505/763/505 
f 451/676/451 525/790/525 507/765/507 
f 514/773/514 451/676/451 509/767/509 
f 514/773/514 509/767/509 511/769/511 
f 526/791/526 527/792/527 535/800/535 
f 498/756/498 527/792/527 500/758/500 
f 500/758/500 528/793/528 529/794/529 
f 530/795/530 502/760/502 529/794/529 
f 504/762/504 502/760/502 531/796/531 
f 506/764/506 504/762/504 531/796/531 532/797/532 
f 508/766/508 506/764/506 532/797/532 
f 510/768/510 508/766/508 534/799/534 
f 511/769/511 510/768/510 534/799/534 
f 536/801/536 535/800/535 498/756/498 
f 513/771/513 537/802/537 536/801/536 497/755/497 
f 538/803/538 537/802/537 496/754/496 
f 539/804/539 538/803/538 496/754/496 
f 481/728/481 539/804/539 479/723/479 
f 540/805/540 529/794/529 541/806/541 
f 541/806/541 529/794/529 542/807/542 
f 542/807/542 528/793/528 527/792/527 
f 543/808/543 527/792/527 526/791/526 
f 457/688/457 472/711/472 458/689/458 
f 472/712/472 476/720/476 470/707/470 
f 483/730/483 519/779/519 482/729/482 
f 464/697/464 482/729/482 474/715/474 
f 518/777/518 437/648/437 479/724/479 
f 517/776/517 479/724/479 480/726/480 
f 486/738/486 487/740/487 430/636/430 
f 484/734/484 486/738/486 430/636/430 
f 499/757/499 512/770/512 513/771/513 
f 512/770/512 499/757/499 488/741/488 
f 489/742/489 524/789/524 525/790/525 
f 452/679/452 525/790/525 451/676/451 
f 456/686/456 469/706/469 472/711/472 
f 456/686/456 472/711/472 457/688/457 
f 515/774/515 516/775/516 492/747/492 
f 451/675/451 420/619/420 422/623/422 
f 459/690/459 455/685/455 461/693/461 
f 460/691/460 461/693/461 463/696/463 
f 462/694/462 464/697/464 468/704/468 
f 447/666/447 463/696/463 523/787/523 
f 465/699/465 466/701/466 468/703/468 
f 466/701/466 462/695/462 468/703/468 
f 481/727/481 437/648/437 436/646/436 
f 482/729/482 438/651/438 483/730/483 
f 489/742/489 488/741/488 524/789/524 
f 474/716/474 490/744/490 468/703/468 
f 494/751/494 478/722/478 495/753/495 
f 495/753/495 477/721/477 496/754/496 
f 498/756/498 500/758/500 501/759/501 
f 501/759/501 502/760/502 503/761/503 
f 503/761/503 504/762/504 506/764/506 
f 505/763/505 506/764/506 508/766/508 
f 507/765/507 510/768/510 509/767/509 
f 484/733/484 494/751/494 488/741/488 
f 488/741/488 495/753/495 512/770/512 
f 512/770/512 496/754/496 513/771/513 
f 461/693/461 514/772/514 511/769/511 
f 420/619/420 514/772/514 455/685/455 
f 421/621/421 455/685/455 453/681/453 
f 421/621/421 453/681/453 452/678/452 
f 480/726/480 428/632/428 487/740/487 
f 494/752/494 431/639/431 429/634/429 
f 515/774/515 493/750/493 517/776/517 
f 493/750/493 474/715/474 482/729/482 
f 467/702/467 456/686/456 460/691/460 
f 517/776/517 518/777/518 479/724/479 
f 520/781/520 444/660/444 511/769/511 
f 461/693/461 521/783/521 522/785/522 
f 463/696/463 522/785/522 523/787/523 
f 499/757/499 524/789/524 488/741/488 
f 524/789/524 503/761/503 525/790/525 
f 525/790/525 505/763/505 507/765/507 
f 451/676/451 507/765/507 509/767/509 
f 527/792/527 498/756/498 535/800/535 
f 527/792/527 528/793/528 500/758/500 
f 500/758/500 529/794/529 502/760/502 
f 530/795/530 529/794/529 540/805/540 
f 502/760/502 530/795/530 531/796/531 
f 508/766/508 532/797/532 533/798/533 
f 508/766/508 533/798/533 534/799/534 
f 511/769/511 534/799/534 520/782/520 
f 536/801/536 498/756/498 497/755/497 
f 537/802/537 513/771/513 496/754/496 
f 539/804/539 496/754/496 477/721/477 
f 539/804/539 477/721/477 479/723/479 
f 529/794/529 528/793/528 542/807/542 
f 542/807/542 527/792/527 543/808/543 
f 519/779/519 517/776/517 482/729/482 
f 464/697/464 474/715/474 468/704/468 
f 517/776/517 480/726/480 487/740/487 
f 487/740/487 428/632/428 430/636/430 
f 484/734/484 430/636/430 431/639/431 
f 499/757/499 513/771/513 497/755/497 
f 489/742/489 525/790/525 452/679/452 
f 452/679/452 451/676/451 423/626/423 
usemtl attach_001C153C_material_4
# Number of Polygons: 27
f 521/784/521 546/811/546 522/786/522 
f 519/780/519 547/812/547 518/778/518 
f 446/664/446 438/650/438 447/665/447 
f 432/640/432 438/650/438 446/664/446 
f 440/655/440 447/665/447 439/654/439 
f 427/630/427 426/629/426 442/657/442 
f 432/640/432 446/664/446 426/629/426 
f 442/657/442 440/655/440 439/654/439 
f 441/656/441 439/654/439 449/671/449 
f 448/669/448 433/641/433 432/640/432 
f 444/659/444 449/671/449 521/783/521 
f 518/777/518 547/812/547 448/669/448 
f 519/779/519 483/730/483 547/812/547 
f 546/811/546 523/787/523 522/785/522 
f 547/812/547 483/730/483 433/641/433 
f 449/671/449 450/673/450 546/811/546 
f 427/630/427 434/643/434 435/644/435 
f 446/664/446 447/665/447 440/655/440 
f 427/630/427 442/657/442 434/643/434 
f 439/654/439 450/673/450 449/671/449 
f 448/669/448 432/640/432 425/628/425 
f 449/671/449 546/811/546 521/783/521 
f 518/777/518 448/669/448 437/647/437 
f 547/812/547 433/641/433 448/669/448 
f 450/673/450 523/787/523 546/811/546 
f 426/629/426 425/628/425 432/640/432 
f 439/654/439 441/656/441 442/657/442 
usemtl attach_001C2274_material_0
# Number of Polygons: 25
f 460/691/460 462/694/462 467/702/467 
f 493/749/493 473/713/473 474/715/474 
f 472/711/472 469/705/469 476/719/476 
f 438/650/438 464/697/464 447/665/447 
f 455/684/455 459/690/459 454/682/454 
f 515/774/515 487/739/487 485/735/485 
f 476/719/476 485/735/485 491/745/491 
f 516/775/516 485/735/485 476/719/476 
f 458/689/458 472/711/472 454/682/454 
f 459/690/459 458/689/458 454/682/454 
f 515/774/515 485/735/485 516/775/516 
f 491/745/491 544/809/544 470/707/470 
f 470/707/470 544/809/544 471/709/471 
f 491/745/491 485/735/485 544/809/544 
f 544/809/544 454/682/454 471/709/471 
f 545/810/545 544/809/544 485/735/485 
f 545/810/545 452/677/452 454/682/454 
f 489/742/489 545/810/545 484/732/484 
f 545/810/545 489/742/489 452/677/452 
f 465/699/465 456/686/456 467/702/467 
f 473/713/473 475/717/475 465/699/465 
f 467/702/467 466/701/466 465/699/465 
f 465/699/465 490/744/490 473/713/473 
f 485/735/485 484/732/484 545/810/545 
f 454/682/454 544/809/544 545/810/545 
usemtl attach_001BF368_material_0
# Number of Polygons: 32
f 567/832/567 563/828/563 555/820/555 564/829/564 
f 567/832/567 564/829/564 556/821/556 565/830/565 
f 567/832/567 565/830/565 561/826/561 566/831/566 
f 567/832/567 566/831/566 562/827/562 563/828/563 
f 571/836/571 565/830/565 556/821/556 568/833/568 
f 571/836/571 568/833/568 553/818/553 569/834/569 
f 571/836/571 569/834/569 560/825/560 570/835/570 
f 571/836/571 570/835/570 561/826/561 565/830/565 
f 575/840/575 572/837/572 553/818/553 568/833/568 
f 575/840/575 568/833/568 556/821/556 573/838/573 
f 575/840/575 573/838/573 558/823/558 574/839/574 
f 575/840/575 574/839/574 559/824/559 572/837/572 
f 578/843/578 573/838/573 556/821/556 564/829/564 
f 578/843/578 564/829/564 555/820/555 576/841/576 
f 578/843/578 576/841/576 557/822/557 577/842/577 
f 578/843/578 577/842/577 558/823/558 573/838/573 
f 582/847/582 579/844/579 548/813/548 580/845/580 
f 582/847/582 580/845/580 552/817/552 581/846/581 
f 582/847/582 581/846/581 558/823/558 577/842/577 
f 582/847/582 577/842/577 557/822/557 579/844/579 
f 586/851/586 583/848/583 554/819/554 584/849/584 
f 586/851/586 584/849/584 550/815/550 585/850/585 
f 586/851/586 585/850/585 562/827/562 566/831/566 
f 586/851/586 566/831/566 561/826/561 583/848/583 
f 589/854/589 587/852/587 551/816/551 588/853/588 
f 589/854/589 588/853/588 554/819/554 583/848/583 
f 589/854/589 583/848/583 561/826/561 570/835/570 
f 589/854/589 570/835/570 560/825/560 587/852/587 
f 592/857/592 581/846/581 552/817/552 590/855/590 
f 592/857/592 590/855/590 549/814/549 591/856/591 
f 592/857/592 591/856/591 559/824/559 574/839/574 
f 592/857/592 574/839/574 558/823/558 581/846/581 
# Number of vertices: 11
v -3.002474 9.033167 0.502048
v -3.006023 9.038016 0.436751
v -2.862259 8.653903 0.471169
v -2.968305 9.036022 0.649638
v -2.745203 8.534589 0.601968
v -2.909697 9.044939 0.787331
v -2.769485 8.665676 0.756452
v -2.874816 9.054668 0.840202
v -2.932951 9.464021 0.775372
v -2.972857 9.594157 0.630254
v -3.025729 9.452247 0.490089

# Number of normals: 11
vn 0.96993 0.204505 -0.131962
vn 0.97854 0.202496 -0.038139
vn 0.870315 0.390365 -0.300277
vn 0.928441 0.203474 -0.310799
vn 0.862079 0.411661 -0.295559
vn 0.85553 0.189391 -0.481871
vn 0.871337 0.391401 -0.295935
vn 0.805617 0.179641 -0.564544
vn 0.943954 0.011955 -0.329861
vn 0.951251 -0.002953 -0.308403
vn 0.957297 0.014294 -0.288752

# Number of texture vertices: 11
vt 0.14902 0.494118
vt 0 0.494118
vt 0.105882 0.870588
vt 0.505882 0.498039
vt 0.458824 1
vt 0.854902 0.505882
vt 0.815686 0.878431
vt 1 0.505882
vt 0.878431 0.12549
vt 0.545098 0
vt 0.172549 0.117647

g Default_1 
usemtl attach_001C1730_material_0_1
# Number of Polygons: 12
f 595/860/595 594/859/594 593/858/593 
f 595/860/595 593/858/593 596/861/596 
f 599/864/599 596/861/596 598/863/598 
f 598/863/598 600/865/600 599/864/599 
f 601/866/601 600/865/600 598/863/598 
f 601/866/601 598/863/598 596/861/596 
f 603/868/603 596/861/596 593/858/593 
f 594/859/594 603/868/603 593/858/593 
f 597/862/597 595/860/595 596/861/596 
f 599/864/599 597/862/597 596/861/596 
f 602/867/602 601/866/601 596/861/596 
f 603/868/603 602/867/602 596/861/596 
# Number of vertices: 11
v -2.939643 9.456813 -0.768004
v -2.883257 9.047015 -0.831699
v -2.921019 9.038278 -0.778908
v -2.975706 9.587721 -0.622838
v -2.974318 9.025003 -0.639572
v -3.024872 9.446904 -0.480305
v -3.006248 9.028371 -0.491209
v -3.003788 9.033004 -0.424831
v -2.860974 8.648667 -0.460524
v -2.775745 8.658576 -0.748221
v -2.747396 8.528317 -0.593692

# Number of normals: 11
vn 0.94996 0.006776 0.312299
vn 0.786287 0.177484 0.591822
vn 0.854667 0.189803 0.483238
vn 0.959056 -0.006053 0.283152
vn 0.935859 0.207342 0.284916
vn 0.966755 0.009362 0.255532
vn 0.975878 0.204585 0.076207
vn 0.978318 0.200913 -0.050272
vn 0.87811 0.400373 0.261963
vn 0.871824 0.40047 0.282042
vn 0.866264 0.420664 0.269497

# Number of texture vertices: 11
vt 0.117647 0.12549
vt 0 0.505882
vt 0.141176 0.505882
vt 0.45098 0
vt 0.490196 0.498039
vt 0.823529 0.117647
vt 0.847059 0.494118
vt 1 0.494118
vt 0.890196 0.870588
vt 0.180392 0.878431
vt 0.537255 1

g Default_2 
usemtl attach_001C19C0_material_0_1
# Number of Polygons: 12
f 606/871/606 605/870/605 604/869/604 
f 608/873/608 604/869/604 607/872/607 
f 608/873/608 607/872/607 609/874/609 
f 611/876/611 610/875/610 609/874/609 
f 612/877/612 610/875/610 611/876/611 
f 613/878/613 605/870/605 606/871/606 
f 613/878/613 606/871/606 608/873/608 
f 612/877/612 608/873/608 610/875/610 
f 608/873/608 606/871/606 604/869/604 
f 610/875/610 608/873/608 609/874/609 
f 614/879/614 613/878/613 608/873/608 
f 612/877/612 614/879/614 608/873/608 
